<svg width="125" height="125" viewBox="0 0 125 125" fill="none" xmlns="http://www.w3.org/2000/svg">
<g clip-path="url(#clip0_154_2227)">
<circle cx="62.3789" cy="62.3789" r="62" fill="#EAA6B4"/>
<path d="M55.3789 62.1289V55.9198C55.3789 53.5369 58.0233 52.1051 60.0188 53.4077L69.5305 59.6168C71.344 60.8006 71.344 63.4572 69.5305 64.641L60.0188 70.8501C58.0233 72.1527 55.3789 70.7209 55.3789 68.338V62.1289Z" fill="white"/>
<path d="M108.613 66.3353C108.722 65.1638 109.213 64.2222 110.088 63.5104C110.97 62.7994 112.001 62.4986 113.18 62.6081C114.352 62.7168 115.305 63.2018 116.042 64.063C116.778 64.9243 117.09 65.9599 116.978 67.1699C116.913 67.8713 116.75 68.4547 116.489 68.9202C116.227 69.3935 115.872 69.8269 115.424 70.2206L114.456 69.2097C115.194 68.5474 115.599 67.8233 115.672 67.0371C115.744 66.2664 115.526 65.601 115.018 65.0408C114.51 64.4883 113.851 64.1745 113.042 64.0994C112.24 64.025 111.534 64.216 110.925 64.6725C110.322 65.1297 109.986 65.7398 109.915 66.5028C109.872 66.9652 109.919 67.3815 110.056 67.7518C110.2 68.1228 110.432 68.5136 110.751 68.9241L109.742 69.7516C109.306 69.2525 108.993 68.7375 108.801 68.2067C108.609 67.6758 108.547 67.052 108.613 66.3353Z" fill="white"/>
<path d="M108.198 71.6581L115.938 74.1377L115.474 75.5862L111.059 76.7688L113.965 80.2964L113.501 81.7449L105.761 79.2652L106.196 77.9052L111.747 79.6835L108.881 76.0709L108.895 76.0267L113.298 74.7672L107.769 72.996L108.198 71.6581Z" fill="white"/>
<path d="M102.1 88.4545C101.803 87.3441 101.968 86.2591 102.594 85.1995C103.22 84.1398 104.085 83.4735 105.191 83.2004C106.296 82.9274 107.355 83.0901 108.368 83.6885C109.368 84.279 110.016 85.1295 110.313 86.2399C110.61 87.3503 110.445 88.4353 109.819 89.4949C109.193 90.5545 108.328 91.2209 107.223 91.4939C106.117 91.767 105.058 91.6043 104.045 91.0059C103.046 90.4154 102.397 89.5649 102.1 88.4545ZM105.441 84.6025C104.694 84.7723 104.117 85.2003 103.712 85.8867C103.306 86.5732 103.213 87.278 103.433 88.0013C103.649 88.7313 104.107 89.303 104.807 89.7163C105.5 90.1258 106.22 90.2456 106.968 90.0759C107.718 89.9168 108.296 89.494 108.702 88.8076C109.107 88.1212 109.202 87.413 108.986 86.683C108.766 85.9597 108.306 85.3914 107.606 84.978C106.913 84.5686 106.191 84.4434 105.441 84.6025Z" fill="white"/>
<path d="M98.0618 91.9124L103.144 96.4356L104.858 94.5102L105.846 95.3902L101.462 100.316L100.473 99.4365L102.187 97.5111L97.1047 92.9878L98.0618 91.9124Z" fill="white"/>
<path d="M93.8744 96.4104L98.9151 102.786L96.4014 104.773C95.6607 105.359 94.9181 105.63 94.1737 105.587C93.4293 105.544 92.7979 105.195 92.2794 104.539C91.7369 103.853 91.5573 103.127 91.7406 102.36C91.9178 101.598 92.3738 100.927 93.1085 100.346L94.3744 99.3453L92.7542 97.2961L93.8744 96.4104ZM95.1737 100.356L93.8713 101.386C93.4524 101.717 93.2025 102.088 93.1216 102.497C93.0406 102.906 93.137 103.284 93.4106 103.63C93.6987 103.994 94.044 104.175 94.4465 104.173C94.8478 104.181 95.261 104.017 95.686 103.681L96.9884 102.651L95.1737 100.356Z" fill="white"/>
<path d="M87.4176 101.337L91.2906 108.482L85.9929 111.354L85.3843 110.231L89.4264 108.04L88.4195 106.182L84.8367 108.124L84.2281 107.001L87.8109 105.059L86.7707 103.14L82.6775 105.359L82.0689 104.236L87.4176 101.337Z" fill="white"/>
<path d="M78.3025 105.706L80.4515 112.161L82.8971 111.347L83.3151 112.603L77.058 114.686L76.64 113.43L79.0855 112.616L76.9365 106.161L78.3025 105.706Z" fill="white"/>
<path d="M72.4351 107.489L73.6203 115.529L72.2189 115.736L71.7923 112.841L69.943 113.114C69.0241 113.249 68.26 113.135 67.6509 112.771C67.0352 112.416 66.6687 111.84 66.5513 111.043C66.4316 110.232 66.6086 109.548 67.0823 108.993C67.5572 108.446 68.2617 108.104 69.1959 107.966L72.4351 107.489ZM71.22 108.959L69.4051 109.226C68.8768 109.304 68.4879 109.479 68.2384 109.75C67.9824 110.03 67.8877 110.397 67.9543 110.848C68.0152 111.262 68.207 111.554 68.5296 111.726C68.8533 111.905 69.2832 111.955 69.8192 111.876L71.6111 111.612L71.22 108.959Z" fill="white"/>
<path d="M57.1714 107.838L57.0494 108.712C58.2913 108.885 59.2271 109.348 59.8567 110.1C60.4864 110.852 60.7279 111.753 60.5813 112.804C60.4358 113.846 59.9584 114.635 59.1489 115.171C58.3385 115.714 57.3123 115.899 56.0704 115.726L55.9645 116.485L54.5616 116.289L54.6675 115.53C53.4256 115.357 52.4893 114.898 51.8586 114.153C51.2279 113.409 50.9853 112.515 51.1308 111.473C51.2763 110.43 51.7548 109.633 52.5664 109.082C53.3703 108.53 54.397 108.341 55.6465 108.516L55.7685 107.642L57.1714 107.838ZM56.8745 109.965L56.2469 114.461C57.0442 114.572 57.7006 114.461 58.2162 114.126C58.7318 113.792 59.0383 113.276 59.1357 112.578C59.2341 111.873 59.0812 111.289 58.6768 110.826C58.2725 110.363 57.6717 110.076 56.8745 109.965ZM55.4716 109.769C54.6667 109.657 54.0108 109.765 53.5039 110.093C52.9883 110.427 52.6808 110.951 52.5813 111.664C52.4839 112.361 52.6374 112.941 53.0417 113.404C53.446 113.867 54.0468 114.154 54.8441 114.265L55.4716 109.769Z" fill="white"/>
<path d="M49.9107 106.876L47.0841 114.496L45.767 114.007L47.8304 108.445L41.9134 112.578L40.6616 112.114L43.4882 104.494L44.8054 104.982L42.746 110.534L48.648 106.408L49.9107 106.876Z" fill="white"/>
<path d="M41.5534 103.52C41.8374 103.693 42.096 103.901 42.329 104.143L41.5989 105.071C41.5042 104.959 41.3842 104.859 41.2389 104.77C41.0803 104.673 40.9308 104.613 40.7902 104.591C40.6391 104.571 40.4442 104.616 40.2058 104.724C39.9607 104.828 39.705 105.017 39.4387 105.289C39.1617 105.565 38.8213 105.973 38.4175 106.516C38.0136 107.058 37.5656 107.732 37.0734 108.538L36.2382 109.906L31.4822 107.001L35.7184 100.065L36.9371 100.809L33.3726 106.645L35.7705 108.11L36.1518 107.486C36.8094 106.409 37.4023 105.542 37.9305 104.885C38.4547 104.235 38.9308 103.782 39.359 103.526C39.7831 103.278 40.165 103.157 40.5048 103.165C40.8339 103.176 41.1834 103.294 41.5534 103.52Z" fill="white"/>
<path d="M33.896 98.7213L28.4708 104.773L27.4161 103.827L29.3692 101.649L27.9773 100.401C27.2857 99.7808 26.8852 99.1203 26.7757 98.4191C26.6552 97.7186 26.8637 97.0687 27.401 96.4693C27.9487 95.8584 28.5873 95.5577 29.3169 95.5672C30.0413 95.5825 30.755 95.9053 31.4581 96.5357L33.896 98.7213ZM31.9888 98.7267L30.6229 97.5021C30.2252 97.1456 29.8423 96.9582 29.474 96.9399C29.0948 96.9223 28.7528 97.0834 28.448 97.4235C28.169 97.7347 28.0666 98.0692 28.1409 98.4269C28.2101 98.7903 28.4464 99.1529 28.8498 99.5146L30.1984 100.724L31.9888 98.7267Z" fill="white"/>
<path d="M27.9169 93.3393L21.3796 98.168L20.4759 96.9446L22.0978 92.6721L17.5373 92.9662L16.6336 91.7428L23.1709 86.914L24.0194 88.0628L19.3312 91.5257L23.9376 91.3132L23.9652 91.3505L22.4127 95.6584L27.0822 92.2093L27.9169 93.3393Z" fill="white"/>
<path d="M14.8615 73.0159C14.9574 73.4544 14.885 73.8664 14.6444 74.2518C14.4021 74.6296 14.0541 74.8681 13.6004 74.9672C13.1618 75.0631 12.7528 74.9861 12.3734 74.7363C11.9939 74.4865 11.7571 74.146 11.6629 73.715C11.567 73.2764 11.6432 72.8636 11.8913 72.4766C12.132 72.0913 12.4753 71.8498 12.9215 71.7523C13.3601 71.6564 13.7691 71.7334 14.1485 71.9832C14.5263 72.2255 14.764 72.5697 14.8615 73.0159Z" fill="white"/>
<path d="M16.9926 53.4665C16.7766 54.623 16.2004 55.5154 15.2642 56.1437C14.3203 56.7706 13.2663 56.9753 12.1021 56.7579C10.9456 56.5419 10.0404 55.9712 9.38643 55.0459C8.73247 54.1206 8.51705 53.0606 8.74017 51.8661C8.86949 51.1737 9.08544 50.6077 9.38802 50.1682C9.69201 49.721 10.0854 49.322 10.5683 48.9713L11.4385 50.0669C10.6429 50.6584 10.1727 51.3423 10.0277 52.1184C9.8856 52.8792 10.0416 53.5619 10.4956 54.1664C10.951 54.7633 11.5782 55.1364 12.3771 55.2856C13.1684 55.4334 13.8887 55.3081 14.5379 54.9096C15.1796 54.5098 15.5707 53.9332 15.7114 53.18C15.7967 52.7234 15.7883 52.3045 15.6863 51.9233C15.5767 51.5406 15.3817 51.1301 15.1013 50.6919L16.1827 49.9608C16.5706 50.4979 16.8356 51.0395 16.9777 51.5857C17.1198 52.132 17.1247 52.7589 16.9926 53.4665Z" fill="white"/>
<path d="M17.8622 48.3108L10.3769 45.1448L10.9694 43.744L15.4723 42.9634L12.8962 39.1887L13.4887 37.7879L20.974 40.9539L20.4176 42.2691L15.0496 39.9987L17.5789 43.8544L17.5608 43.8972L13.0629 44.7555L18.4095 47.0169L17.8622 48.3108Z" fill="white"/>
<path d="M25.348 32.2493C25.5462 33.3816 25.287 34.4479 24.5703 35.4484C23.8537 36.4489 22.9329 37.0366 21.8079 37.2115C20.6829 37.3863 19.6422 37.1312 18.6857 36.4461C17.7419 35.77 17.1708 34.8658 16.9726 33.7336C16.7743 32.6014 17.0335 31.5351 17.7502 30.5345C18.4669 29.534 19.3877 28.9464 20.5127 28.7715C21.6376 28.5966 22.6784 28.8518 23.6348 29.5369C24.5787 30.213 25.1498 31.1171 25.348 32.2493ZM21.6816 35.7928C22.4411 35.6894 23.053 35.3137 23.5173 34.6655C23.9815 34.0174 24.1359 33.3234 23.9803 32.5836C23.8292 31.8375 23.4234 31.2278 22.7626 30.7545C22.1082 30.2857 21.4012 30.103 20.6417 30.2064C19.8803 30.2989 19.2675 30.6693 18.8033 31.3174C18.339 31.9655 18.1824 32.6627 18.3335 33.4088C18.489 34.1486 18.8972 34.7552 19.5579 35.2285C20.2123 35.6972 20.9202 35.8853 21.6816 35.7928Z" fill="white"/>
<path d="M29.6244 29.1792L24.9553 24.2305L23.0805 25.9993L22.1722 25.0366L26.9689 20.5109L27.8773 21.4737L26.0025 23.2425L30.6716 28.1912L29.6244 29.1792Z" fill="white"/>
<path d="M34.2238 25.0111L29.7608 18.2189L32.4389 16.4592C33.2281 15.9406 33.9916 15.7353 34.7294 15.8433C35.4671 15.9513 36.0656 16.3546 36.5246 17.0532C37.0049 17.7842 37.1202 18.5235 36.8705 19.271C36.6272 20.0144 36.1142 20.6432 35.3315 21.1575L33.9828 22.0437L35.4173 24.2269L34.2238 25.0111ZM33.2751 20.9666L34.6626 20.0549C35.109 19.7616 35.3904 19.4146 35.5068 19.014C35.6233 18.6133 35.5604 18.2286 35.3181 17.8599C35.0631 17.4717 34.7349 17.2613 34.3337 17.2286C33.9347 17.1851 33.5088 17.3122 33.0559 17.6097L31.6684 18.5214L33.2751 20.9666Z" fill="white"/>
<path d="M40.9537 20.7094L37.7319 13.2479L43.264 10.8592L43.7703 12.0317L39.5493 13.8543L40.3869 15.7943L44.1283 14.1788L44.6346 15.3513L40.8932 16.9668L41.7585 18.9707L46.0328 17.1251L46.5391 18.2976L40.9537 20.7094Z" fill="white"/>
<path d="M50.4925 17.1067L48.9385 10.4829L46.4291 11.0716L46.1268 9.78298L52.5472 8.27673L52.8495 9.56533L50.3402 10.154L51.8941 16.7779L50.4925 17.1067Z" fill="white"/>
<path d="M56.6445 15.8079L56.2057 7.69245L57.6201 7.61597L57.7781 10.5375L59.6446 10.4366C60.5721 10.3864 61.3223 10.5707 61.8953 10.9893C62.4757 11.3997 62.7875 12.0069 62.831 12.8107C62.8753 13.63 62.636 14.294 62.1132 14.8029C61.5899 15.3041 60.8568 15.5801 59.9139 15.6311L56.6445 15.8079ZM57.99 14.4561L59.8217 14.3571C60.355 14.3282 60.7584 14.1902 61.0318 13.9428C61.3126 13.6873 61.4406 13.3316 61.416 12.8756C61.3934 12.4582 61.2294 12.1493 60.924 11.9487C60.6182 11.7405 60.1948 11.651 59.6537 11.6802L57.8452 11.778L57.99 14.4561Z" fill="white"/>
<path d="M71.6002 16.7472L71.7985 15.8874C70.5766 15.6056 69.6851 15.0625 69.1239 14.2579C68.5628 13.4533 68.4013 12.5344 68.6396 11.5011C68.8761 10.4753 69.4211 9.73114 70.2744 9.26861C71.1295 8.79853 72.168 8.70437 73.3898 8.98612L73.562 8.23943L74.9422 8.5577L74.7701 9.30439C75.9919 9.58614 76.8843 10.1255 77.4472 10.9226C78.0101 11.7196 78.1733 12.631 77.9367 13.6568C77.7002 14.6825 77.1535 15.4342 76.2967 15.9119C75.4475 16.3912 74.4081 16.4891 73.1787 16.2057L72.9804 17.0655L71.6002 16.7472ZM72.0828 14.6542L73.1029 10.2306C72.3184 10.0497 71.6548 10.1032 71.1118 10.3911C70.5688 10.6789 70.2182 11.166 70.0599 11.8524C69.8999 12.5463 70.0009 13.1415 70.3631 13.6381C70.7252 14.1346 71.2984 14.4733 72.0828 14.6542ZM73.4631 14.9725C74.255 15.1551 74.9178 15.1054 75.4515 14.8233C75.9945 14.5355 76.3469 14.0408 76.5086 13.3394C76.6669 12.653 76.565 12.0616 76.2029 11.565C75.8408 11.0685 75.2675 10.7298 74.4831 10.5489L73.4631 14.9725Z" fill="white"/>
<path d="M79.0378 18.4186L82.5351 11.0823L83.8032 11.6868L81.2502 17.0423L87.5133 13.4554L88.7186 14.03L85.2213 21.3663L83.9531 20.7618L86.5012 15.4168L80.2535 18.9982L79.0378 18.4186Z" fill="white"/>
<path d="M86.8684 22.3672C86.6006 22.1695 86.3613 21.9398 86.1504 21.6782L86.9592 20.8177C87.0437 20.9378 87.1544 21.0485 87.2914 21.1497C87.4408 21.26 87.5845 21.3325 87.7226 21.3671C87.8714 21.4001 88.0694 21.3731 88.3165 21.2862C88.5697 21.2038 88.841 21.0385 89.1302 20.7902C89.4303 20.5403 89.8053 20.163 90.2552 19.6581C90.7051 19.1532 91.2105 18.521 91.7716 17.7614L92.7235 16.4727L97.2063 19.7838L92.3775 26.3211L91.2288 25.4726L95.2919 19.9719L93.0318 18.3026L92.5972 18.8909C91.8476 19.9058 91.1809 20.7172 90.5971 21.3252C90.0178 21.927 89.5038 22.3364 89.0549 22.5533C88.6105 22.764 88.2195 22.8504 87.8817 22.8127C87.5548 22.7732 87.217 22.6248 86.8684 22.3672Z" fill="white"/>
<path d="M94.253 27.9373L100.205 22.403L101.169 23.4404L99.0267 25.4327L100.3 26.8016C100.932 27.4818 101.271 28.176 101.317 28.8842C101.373 29.5928 101.106 30.2211 100.517 30.7693C99.916 31.328 99.2528 31.5695 98.5271 31.4938C97.8071 31.4129 97.1256 31.0266 96.4826 30.3351L94.253 27.9373ZM96.1529 28.105L97.402 29.4484C97.7657 29.8395 98.1301 30.0609 98.4952 30.1125C98.8712 30.1645 99.2264 30.035 99.5608 29.7241C99.8669 29.4394 99.9992 29.1156 99.9576 28.7526C99.9217 28.3844 99.7193 28.0019 99.3503 27.6051L98.117 26.2787L96.1529 28.105Z" fill="white"/>
<path d="M99.6487 33.6941L106.585 29.4578L107.377 30.7558L105.387 34.8695L109.955 34.9769L110.748 36.2749L103.812 40.5111L103.068 39.2924L108.042 36.2544L103.435 36.0617L103.411 36.0221L105.335 31.8671L100.381 34.893L99.6487 33.6941Z" fill="white"/>
<path d="M110.935 55.1896C110.878 54.7443 110.986 54.3403 111.26 53.9776C111.534 53.6225 111.902 53.4156 112.362 53.3567C112.808 53.2997 113.208 53.4124 113.564 53.6946C113.92 53.9768 114.126 54.3368 114.182 54.7744C114.239 55.2197 114.127 55.6242 113.846 55.9879C113.572 56.3506 113.209 56.5609 112.756 56.6188C112.311 56.6758 111.91 56.5631 111.554 56.2809C111.199 56.0064 110.993 55.6426 110.935 55.1896Z" fill="white"/>
</g>
<defs>
<clipPath id="clip0_154_2227">
<rect width="125" height="125" fill="white"/>
</clipPath>
</defs>
</svg>
