<svg width="1920" height="653" fill="none" xmlns="http://www.w3.org/2000/svg"><g style="mix-blend-mode:screen" stroke="#fff" stroke-miterlimit="10"><path d="M1581.32-882.169C1083.31-971.951 96.516-648.705 7.137-58.652-55.835 357.225 333.169 605.952 659.2 614.311c209.626 5.387 1040.229-126.314 1367.719-99.504 22.73 1.889 296.72 42.322 424.36 136.871" stroke-width="1.13"/><path d="M1581.33-882.169C1083.31-971.951 96.517-648.705 7.138-58.652c-62.971 415.876 322.348 662.251 643.768 653.149C888.394 587.84 1672.56 399.174 2028.9 419.576c21.68 1.239 294.74 32.693 422.38 158.233" stroke-width="1.04"/><path d="M1581.32-882.169C1083.31-971.951 96.516-648.705 7.137-58.652c-62.972 415.877 318.88 657.112 635.408 633.335C908.083 554.745 1645.41 311.157 2030.76 324.315c20.59.712 292.78 23.096 420.43 179.564" stroke-width=".94"/><path d="M1581.32-882.169C1083.31-971.951 96.515-648.705 7.136-58.652c-62.971 415.845 315.382 650.145 627.235 613.49C927.927 520.287 1618.66 213.511 2032.8 228.991c19.51.712 290.83 13.467 418.48 200.988" stroke-width=".85"/><path d="M1581.33-882.169C1083.31-971.951 96.517-648.705 7.138-58.652c-62.972 415.876 311.667 642.034 618.969 593.707 321.389-50.557 965.183-406.744 1408.653-401.233 18.57.217 288.88 3.87 416.52 222.381" stroke-width=".76"/><path d="M1581.32-882.17C1083.31-971.952 96.517-648.706 7.137-58.652c-62.971 415.876 307.674 632.839 610.641 573.861C966.659 447.316 1564.17 53.761 2036.64 38.436c17.4-.557 286.93-5.727 414.58 243.774" stroke-width=".66"/><path d="M1581.33-882.17C1083.31-971.952 96.517-648.706 7.137-58.652c-62.97 415.876 303.34 622.963 602.438 553.893C985.482 408.802 1537.27-29.148 2038.81-56.671c16.35-.898 284.83-15.48 412.63 265.105" stroke-width=".57"/></g></svg>