<svg width="1920" height="144" fill="none" xmlns="http://www.w3.org/2000/svg"><path d="M1067.7 138.349H852v3.104h215.7v-3.104z" fill="url(#a)"/><path d="M947.477 107.307a2.469 2.469 0 0 1 .01 2.49 2.507 2.507 0 0 1-2.17 1.248 2.502 2.502 0 0 1-2.171-1.248 2.479 2.479 0 0 1-.332-1.246c.002-.437.12-.866.342-1.244h4.321zm-85.917 14.428a9.868 9.868 0 0 1-4.213 1.176c-3.161 0-5.347-1.656-5.347-5.309v-5.797h3.52v4.77c0 1.963.776 3.073 2.569 3.073a6.022 6.022 0 0 0 3.487-1.019v-6.816h3.503v15.819h-3.503l-.016-5.897zm7.324-9.939h12.036v3.098h-8.533v3.238h7.507v3.098h-7.507v3.313h8.642v3.089H868.9l-.016-15.836zm15.248 0h6.506c3.804 0 6.098 2.245 6.098 5.516 0 3.661-2.862 5.557-6.44 5.557h-2.645v4.746h-3.503l-.016-15.819zm6.297 7.992c1.752 0 2.778-1.043 2.778-2.484 0-1.557-1.093-2.394-2.844-2.394h-2.712v4.878h2.778zm8.918-7.983h3.553v6.261h6.456v-6.253h3.471v15.819h-3.512v-6.345H902.9v6.345h-3.553v-15.827zm17.3 0h3.503v5.383h3.387c3.687 0 5.839 2.029 5.839 5.127 0 3.255-2.319 5.309-6.056 5.309h-6.673v-15.819zm3.503 8.365v4.315h3.12c1.727 0 2.619-.745 2.619-2.212 0-1.333-.892-2.103-2.644-2.103h-3.095zm10.994-8.365h3.504v15.819h-3.504v-15.819zm21.046 15.819h-3.412v-10.32l-7.006 10.328h-3.337v-15.819h3.462v10.377l7.006-10.377h3.254l.033 15.811zm19.728 0v-4.191l-2.111-2.261-4.488 6.46h-4.17l6.306-8.969-6.081-6.85h4.171l6.39 7.396v-7.396h3.486v7.396l6.39-7.396h4.171l-6.081 6.85 6.306 8.969h-4.171l-4.504-6.46-2.094 2.261v4.199l-3.52-.008zm16.383-15.819h12.019v3.097h-8.533v3.23h7.508v3.098h-7.508v3.313h8.653v3.089h-12.139v-15.827zm15.249 0h3.78l4.17 6.691 4.17-6.691h3.78v15.819h-3.48v-10.32l-4.49 6.75h-.09l-4.44-6.684v10.262h-3.43l.03-15.827zm28.99 9.939a9.855 9.855 0 0 1-4.17 1.175c-3.16 0-5.34-1.656-5.34-5.309v-5.797h3.5v4.77c0 1.963.78 3.073 2.58 3.073a6 6 0 0 0 3.48-1.019v-6.824h3.5v15.819h-3.5l-.05-5.888zm17.91-9.939h3.81l-6.13 12.232c-1.39 2.75-2.98 3.835-5.21 3.835-1.21.008-2.4-.31-3.44-.919l1.37-2.559c.57.348 1.22.529 1.89.521a2.364 2.364 0 0 0 2-1.267l-6.37-11.843h3.92l4.32 8.365 3.84-8.365zm9.63 15.819h-3.5v-15.811h11.12v3.147h-7.62v12.664z" fill="#fff"/><path d="M984.293 70.247c0-13.391-10.856-24.247-24.247-24.247-13.392 0-24.248 10.856-24.248 24.247v.008c0 13.392 10.856 24.248 24.248 24.248 13.391 0 24.247-10.856 24.247-24.248v-.008z" fill="#3A3A3C"/><path d="M963.86 46.302a24.242 24.242 0 0 0-24.476 11.258 24.246 24.246 0 0 0-3.567 13.62 24.247 24.247 0 1 0 47.812-6.565 24.254 24.254 0 0 0-10.894-15.03 24.257 24.257 0 0 0-8.875-3.283zm-24.948 20.572a21.352 21.352 0 0 1 10.614-15.256 13.596 13.596 0 0 0-3.484 7.881 13.34 13.34 0 0 0 3.914 10.885c4.16 4.06 10.639 6.624 16.562 3.722 5.737-2.802 6.344-11.324.649-15.358-3.56-2.531-9.457-2.489-10.824 1.224a4.672 4.672 0 0 0 2.193 5.434c3.738 2.202 7.442-.945 5.316-3.907 1.873.633 3.56 3.148 2.716 6.075-1.265 4.405-7.036 5.975-11.921 2.895-6.387-4.017-6.134-12.404-2.446-16.488 5.847-6.498 15.186-5.232 20.99-.667 8.437 6.624 8.26 17.416 3.105 22.918a13.901 13.901 0 0 1-10.723 4.219c-7.889-.287-12.849-6.852-17.785-9.4-2.708-1.426-6.926-2.034-9.061.557a20.89 20.89 0 0 1 .185-4.734zm3.569 15.602c5.653 1.856 7.948-1.054 6.851-3.19 2.574 2.17 2.818 8.388 7.256 12.084a21.353 21.353 0 0 1-14.107-8.894zm25.775 7.518a2.955 2.955 0 0 0 .227-2.42 2.666 2.666 0 0 0-3.417-1.495c-.894.245-1.779 1.14-1.493 2.084.287.946 1.604 1.267 2.709.633.118 1.08-.886 2.211-2.456 2.422-2.454.33-4.784-1.426-6.859-4.22-1.594-2.109-2.775-4.884-4.159-6.85-1.206-1.688-3.578-4.76-6.556-4.287a2.034 2.034 0 0 0-1.813 1.688 1.44 1.44 0 0 0 1.375 1.358 1.423 1.423 0 0 0 1.35-.43 1.512 1.512 0 0 1-.515 2.117c-2.472 1.36-6.386-.902-6.969-4.218-.548-3.207 2.793-5.063 6.64-3.494 6.918 2.86 9.66 10.666 19.691 11.408a15.32 15.32 0 0 0 14.428-7.594 21.424 21.424 0 0 1-4.623 7.995 21.39 21.39 0 0 1-7.56 5.303z" fill="url(#b)"/><path d="M0 141.227h770.201C770.201 68.022 857.009 2 959.176 2c102.834 0 188.974 66.022 188.974 139.227H1920" stroke="url(#c)" stroke-width="4"/><defs><linearGradient id="a" x1="851.995" y1="139.89" x2="1067.68" y2="139.89" gradientUnits="userSpaceOnUse"><stop stop-color="#F9DCBC"/><stop offset=".178" stop-color="#FEF9E9"/><stop offset=".443" stop-color="#FADEB9"/><stop offset=".528" stop-color="#F5D6AC"/><stop offset=".575" stop-color="#E6BA93"/><stop offset=".624" stop-color="#DCAF82"/><stop offset=".674" stop-color="#D2A47A"/><stop offset=".7" stop-color="#D9AD7A"/><stop offset=".818" stop-color="#EED6B5"/><stop offset=".957" stop-color="#FCEBD5"/></linearGradient><linearGradient id="b" x1="935.799" y1="46" x2="998.538" y2="62.182" gradientUnits="userSpaceOnUse"><stop stop-color="#FFBE77"/><stop offset=".188" stop-color="#FFECD2"/><stop offset=".443" stop-color="#FADEB9"/><stop offset=".656" stop-color="#D2A47A"/><stop offset=".957" stop-color="#FCEBD5"/></linearGradient><linearGradient id="c" x1="1440.31" y1="71.152" x2="478.508" y2="71.152" gradientUnits="userSpaceOnUse"><stop stop-color="#F9DCBC"/><stop offset=".178" stop-color="#FEF9E9"/><stop offset=".443" stop-color="#FADEB9"/><stop offset=".528" stop-color="#F5D6AC"/><stop offset=".575" stop-color="#E6BA93"/><stop offset=".624" stop-color="#DCAF82"/><stop offset=".674" stop-color="#D2A47A"/><stop offset=".7" stop-color="#D9AD7A"/><stop offset=".818" stop-color="#EED6B5"/><stop offset=".957" stop-color="#FCEBD5"/></linearGradient></defs></svg>