<svg width="125" height="125" viewBox="0 0 125 125" fill="none" xmlns="http://www.w3.org/2000/svg">
<g clip-path="url(#clip0_14_2757)">
<circle cx="62.3789" cy="62.3788" r="62" fill="#EAA6B4"/>
<path d="M55.3789 62.1288V55.9197C55.3789 53.5368 58.0233 52.105 60.0188 53.4076L69.5305 59.6166C71.344 60.8005 71.344 63.4571 69.5305 64.6409L60.0188 70.85C58.0233 72.1526 55.3789 70.7208 55.3789 68.3378V62.1288Z" fill="white"/>
<path d="M108.479 66.4995C108.596 65.2891 109.108 64.3179 110.014 63.5858C110.929 62.8544 111.996 62.5476 113.214 62.6654C114.424 62.7825 115.408 63.2875 116.166 64.1806C116.923 65.0737 117.242 66.1453 117.121 67.3954C117.051 68.1201 116.88 68.7224 116.608 69.2025C116.336 69.6906 115.967 70.1372 115.502 70.5423L114.507 69.4936C115.272 68.8121 115.694 68.0652 115.772 67.253C115.849 66.4567 115.626 65.7681 115.104 65.1871C114.581 64.614 113.901 64.2871 113.065 64.2063C112.237 64.1262 111.507 64.3208 110.874 64.7901C110.25 65.2603 109.9 65.8895 109.824 66.6778C109.778 67.1556 109.825 67.5861 109.964 67.9693C110.112 68.3533 110.35 68.7581 110.679 69.1837L109.632 70.0349C109.184 69.5173 108.862 68.9839 108.665 68.4344C108.469 67.885 108.407 67.24 108.479 66.4995Z" fill="white"/>
<path d="M108.052 71.8562L116.032 74.4793L115.541 75.9727L110.97 77.1605L113.945 80.8291L113.454 82.3224L105.474 79.6993L105.935 78.2971L111.658 80.1783L108.724 76.4223L108.739 76.3767L113.299 75.1092L107.599 73.2356L108.052 71.8562Z" fill="white"/>
<path d="M101.5 89.2034C101.215 88.0503 101.405 86.9322 102.072 85.8491C102.739 84.766 103.646 84.0938 104.794 83.8327C105.941 83.5715 107.032 83.7598 108.068 84.3974C109.09 85.0266 109.743 85.9178 110.029 87.0709C110.315 88.224 110.124 89.3421 109.457 90.4252C108.79 91.5083 107.883 92.1804 106.736 92.4416C105.589 92.7028 104.497 92.5145 103.462 91.8769C102.44 91.2477 101.786 90.3565 101.5 89.2034ZM105.026 85.2863C104.25 85.4475 103.646 85.8789 103.214 86.5805C102.782 87.2822 102.673 88.0088 102.887 88.7604C103.096 89.5189 103.558 90.1183 104.274 90.5588C104.982 90.9951 105.724 91.1326 106.5 90.9714C107.278 90.8213 107.883 90.3954 108.315 89.6937C108.747 88.9921 108.859 88.2621 108.649 87.5036C108.436 86.752 107.971 86.156 107.256 85.7155C106.548 85.2792 105.804 85.1362 105.026 85.2863Z" fill="white"/>
<path d="M97.285 92.6382L102.435 97.4267L104.249 95.4758L105.251 96.4073L100.609 101.399L99.6074 100.467L101.421 98.5164L96.2717 93.7279L97.285 92.6382Z" fill="white"/>
<path d="M92.8422 97.1819L97.8576 103.92L95.2008 105.898C94.4178 106.48 93.6425 106.738 92.8747 106.672C92.107 106.605 91.4651 106.225 90.9493 105.532C90.4095 104.807 90.2459 104.051 90.4584 103.264C90.6644 102.483 91.1557 101.803 91.9322 101.225L93.2703 100.229L91.6582 98.0631L92.8422 97.1819ZM94.0656 101.298L92.689 102.322C92.2462 102.652 91.9768 103.027 91.8809 103.447C91.785 103.868 91.8731 104.261 92.1454 104.627C92.432 105.012 92.7833 105.209 93.1992 105.218C93.6136 105.239 94.0453 105.082 94.4946 104.748L95.8711 103.723L94.0656 101.298Z" fill="white"/>
<path d="M86.028 102.066L89.7548 109.594L84.1733 112.357L83.5877 111.174L87.8464 109.066L86.8774 107.109L83.1027 108.977L82.517 107.794L86.2918 105.926L85.2908 103.904L80.9784 106.039L80.3927 104.856L86.028 102.066Z" fill="white"/>
<path d="M76.462 106.209L78.404 112.967L80.9644 112.232L81.3422 113.546L74.7912 115.429L74.4134 114.114L76.9738 113.378L75.0319 106.62L76.462 106.209Z" fill="white"/>
<path d="M70.3519 107.791L71.1604 116.152L69.7032 116.293L69.4122 113.283L67.4892 113.469C66.5336 113.561 65.7508 113.404 65.1408 112.997C64.5236 112.598 64.1749 111.985 64.0949 111.157C64.0132 110.313 64.2312 109.617 64.7489 109.068C65.2673 108.528 66.0122 108.211 66.9837 108.117L70.3519 107.791ZM69.0218 109.246L67.1346 109.428C66.5852 109.482 66.1747 109.642 65.9032 109.909C65.6244 110.185 65.5078 110.558 65.5532 111.028C65.5948 111.458 65.7777 111.77 66.1018 111.964C66.4267 112.165 66.8679 112.239 67.4253 112.185L69.2886 112.005L69.0218 109.246Z" fill="white"/>
<path d="M58.1172 108.288L56.6381 116.557L52.929 115.893C51.9761 115.723 51.2992 115.35 50.8983 114.774C50.5944 114.338 50.4924 113.84 50.5924 113.281C50.7389 112.462 51.2426 111.918 52.1033 111.649C51.0749 111.084 50.6487 110.308 50.8248 109.324C50.9544 108.6 51.33 108.09 51.9517 107.795C52.5734 107.499 53.3528 107.436 54.2899 107.603L58.1172 108.288ZM55.8321 112.816L53.8476 112.461C53.3672 112.375 52.9723 112.402 52.6629 112.542C52.3442 112.688 52.151 112.95 52.0834 113.328C52.0242 113.659 52.1045 113.937 52.3241 114.164C52.5423 114.398 52.8837 114.556 53.3483 114.639L55.4391 115.013L55.8321 112.816ZM56.4575 109.32L54.0478 108.889C53.5438 108.799 53.1364 108.827 52.8255 108.975C52.5068 109.121 52.3136 109.383 52.246 109.761C52.1136 110.501 52.6144 110.973 53.7484 111.176L56.0519 111.588L56.4575 109.32Z" fill="white"/>
<path d="M48.9854 106.491L45.8876 114.299L44.5379 113.763L46.7994 108.064L40.5894 112.197L39.3066 111.688L42.4045 103.88L43.7541 104.415L41.4971 110.104L47.6916 105.978L48.9854 106.491Z" fill="white"/>
<path d="M42.1978 101.92L40.4941 104.534L39.8105 104.089C38.4452 104.879 37.0744 106.33 35.6984 108.441L35.0496 109.437L30.1438 106.239L34.01 100.308L33.1354 99.7374L35.01 97.2351L36.0354 97.9035L35.0525 99.4114L40.0086 102.642L41.1121 101.213L42.1978 101.92ZM38.4936 103.23L35.2465 101.114L32.1077 105.929L34.5907 107.547L35.115 106.743C36.1853 105.101 37.3115 103.93 38.4936 103.23Z" fill="white"/>
<path d="M32.6857 97.6174L26.8329 103.643L22.3655 99.3034L23.2852 98.3565L26.6939 101.668L28.2156 100.101L25.1943 97.1662L26.114 96.2193L29.1353 99.1541L30.7072 97.5358L27.2555 94.183L28.1752 93.2362L32.6857 97.6174Z" fill="white"/>
<path d="M21.7959 86.5597C22.9663 86.7637 23.9123 87.3894 24.634 88.4368C25.3557 89.4843 25.6044 90.5856 25.3802 91.7407C25.156 92.8958 24.5432 93.8183 23.5419 94.5083C22.5538 95.1891 21.4745 95.4275 20.3042 95.2235C19.1338 95.0195 18.1878 94.3938 17.4661 93.3464C16.7444 92.2989 16.4957 91.1976 16.7199 90.0425C16.9441 88.8874 17.5568 87.9649 18.5582 87.2749C19.5463 86.5941 20.6256 86.3557 21.7959 86.5597ZM23.9565 91.3664C24.1222 90.5916 23.9713 89.865 23.5037 89.1864C23.0362 88.5079 22.4155 88.1146 21.6417 88.0066C20.8632 87.8921 20.1282 88.0731 19.4365 88.5497C18.7513 89.0217 18.3259 89.6451 18.1603 90.4199C17.9835 91.1926 18.1288 91.9182 18.5963 92.5968C19.0638 93.2753 19.6868 93.6719 20.4652 93.7864C21.2391 93.8944 21.9719 93.7101 22.6636 93.2335C23.3488 92.7615 23.7797 92.1391 23.9565 91.3664Z" fill="white"/>
<path d="M14.5141 71.2124C14.5958 71.6692 14.5048 72.0918 14.241 72.4803C13.9759 72.8609 13.6071 73.0935 13.1346 73.178C12.6779 73.2597 12.2585 73.1641 11.8764 72.8911C11.4944 72.6181 11.2632 72.2572 11.1829 71.8083C11.1012 71.3515 11.1962 70.9282 11.4678 70.5383C11.7315 70.1498 12.0957 69.914 12.5603 69.8309C13.017 69.7492 13.4364 69.8448 13.8185 70.1178C14.1991 70.3829 14.431 70.7478 14.5141 71.2124Z" fill="white"/>
<path d="M17.5755 51.285C17.2933 52.4678 16.6528 53.3595 15.6541 53.9601C14.6477 54.5589 13.5491 54.7162 12.3586 54.4321C11.1758 54.1498 10.2706 53.5144 9.64289 52.5257C9.01523 51.537 8.84716 50.4318 9.13869 49.2101C9.30766 48.502 9.55958 47.9288 9.89444 47.4906C10.2312 47.0446 10.6577 46.6529 11.1741 46.3155L12.0163 47.4911C11.1647 48.061 10.6443 48.7428 10.4549 49.5365C10.2692 50.3147 10.3952 51.0274 10.8329 51.6747C11.2725 52.3142 11.9008 52.7314 12.7179 52.9264C13.5272 53.1195 14.2771 53.027 14.9677 52.649C15.6505 52.2691 16.0838 51.694 16.2677 50.9236C16.3791 50.4567 16.3919 50.0239 16.3061 49.6251C16.2126 49.2244 16.0323 48.7907 15.7653 48.324L16.9192 47.6247C17.2921 48.199 17.5378 48.7716 17.6565 49.3428C17.7752 49.9139 17.7482 50.5613 17.5755 51.285Z" fill="white"/>
<path d="M18.6951 46.104L11.1534 42.4052L11.8456 40.9938L16.5373 40.448L14.0966 36.4041L14.7888 34.9927L22.3306 38.6916L21.6807 40.0168L16.2721 37.3641L18.6597 41.4889L18.6386 41.532L13.9475 42.1583L19.3345 44.8004L18.6951 46.104Z" fill="white"/>
<path d="M27.5035 29.8503C27.6312 31.0314 27.2916 32.1136 26.4846 33.0968C25.6777 34.0801 24.6881 34.6238 23.5161 34.7278C22.344 34.8319 21.288 34.4982 20.348 33.7268C19.4204 32.9655 18.8928 31.9943 18.7651 30.8132C18.6374 29.6321 18.977 28.5499 19.784 27.5666C20.5909 26.5834 21.5804 26.0397 22.7525 25.9356C23.9246 25.8316 24.9806 26.1653 25.9206 26.9367C26.8482 27.698 27.3758 28.6692 27.5035 29.8503ZM23.482 33.2561C24.2723 33.201 24.9289 32.855 25.4516 32.218C25.9744 31.5811 26.1806 30.8758 26.0703 30.1023C25.9651 29.3225 25.5879 28.6662 24.9385 28.1333C24.2954 27.6055 23.5786 27.3691 22.7883 27.4242C21.9968 27.4681 21.3397 27.8085 20.8169 28.4454C20.2942 29.0824 20.0854 29.7907 20.1906 30.5705C20.3009 31.344 20.6807 31.9973 21.3301 32.5302C21.9732 33.058 22.6905 33.3 23.482 33.2561Z" fill="white"/>
<path d="M32.168 26.963L27.7267 21.5111L25.6613 23.1936L24.7973 22.133L30.0818 17.8281L30.9458 18.8887L28.8804 20.5713L33.3217 26.0233L32.168 26.963Z" fill="white"/>
<path d="M37.0752 23.1127L33.0178 15.7576L35.9179 14.1578C36.7725 13.6864 37.5756 13.5358 38.3272 13.7059C39.0789 13.876 39.6634 14.3393 40.0807 15.0958C40.5174 15.8873 40.5772 16.6583 40.2603 17.4088C39.9503 18.1554 39.3715 18.7624 38.5239 19.23L37.0634 20.0356L38.3676 22.3998L37.0752 23.1127ZM36.42 18.8693L37.9226 18.0405C38.4059 17.7739 38.7236 17.4387 38.8755 17.0351C39.0275 16.6315 38.9933 16.2301 38.7731 15.8308C38.5412 15.4105 38.2199 15.1675 37.809 15.1018C37.4013 15.0252 36.9523 15.1221 36.462 15.3926L34.9594 16.2215L36.42 18.8693Z" fill="white"/>
<path d="M44.5561 19.1368L41.9029 11.1668L47.8121 9.19964L48.229 10.4521L43.7203 11.953L44.4101 14.0252L48.4065 12.6948L48.8234 13.9472L44.827 15.2776L45.5396 17.4181L50.1053 15.8982L50.5222 17.1507L44.5561 19.1368Z" fill="white"/>
<path d="M54.6774 16.3117L53.7054 9.34722L51.067 9.71548L50.8779 8.36061L57.6284 7.41841L57.8175 8.77328L55.1791 9.14153L56.1512 16.106L54.6774 16.3117Z" fill="white"/>
<path d="M61.0012 15.5668L61.3577 7.17437L62.8204 7.2365L62.692 10.2578L64.6223 10.3398C65.5814 10.3805 66.3349 10.6447 66.8827 11.1324C67.4388 11.6124 67.6992 12.2681 67.6639 13.0993C67.6279 13.9466 67.3157 14.6059 66.7271 15.0774C66.1389 15.5408 65.3573 15.7518 64.3822 15.7104L61.0012 15.5668ZM62.5199 14.3101L64.4142 14.3906C64.9657 14.414 65.3944 14.3121 65.7003 14.0849C66.0146 13.85 66.1817 13.4968 66.2018 13.0252C66.2201 12.5936 66.0822 12.2594 65.7879 12.0227C65.4941 11.7781 65.0674 11.6438 64.5079 11.6201L62.6376 11.5406L62.5199 14.3101Z" fill="white"/>
<path d="M73.0085 16.6876L75.6015 8.69786L79.1855 9.86101C80.1062 10.1598 80.7259 10.6217 81.0446 11.2466C81.2861 11.7203 81.3193 12.2272 81.1439 12.7675C80.8871 13.5589 80.314 14.0289 79.4247 14.1777C80.3663 14.8786 80.6827 15.7046 80.3741 16.6558C80.1469 17.3558 79.7052 17.8096 79.0491 18.0172C78.3929 18.2248 77.6121 18.1817 76.7066 17.8878L73.0085 16.6876ZM75.8898 12.5132L77.8074 13.1355C78.2715 13.2862 78.6664 13.3134 78.992 13.2172C79.3277 13.1159 79.5548 12.8826 79.6733 12.5173C79.777 12.1977 79.7355 11.9109 79.5489 11.6569C79.3646 11.3952 79.048 11.1916 78.5991 11.0459L76.5788 10.3902L75.8898 12.5132ZM74.7934 15.8917L77.1218 16.6474C77.6088 16.8055 78.0163 16.8326 78.3444 16.7288C78.6801 16.6274 78.9072 16.3942 79.0257 16.0289C79.2578 15.3136 78.826 14.7782 77.7303 14.4226L75.5046 13.7002L74.7934 15.8917Z" fill="white"/>
<path d="M81.7986 19.6739L85.9371 12.3641L87.2007 13.0795L84.1796 18.4156L90.8973 15.1724L92.0982 15.8522L87.9597 23.162L86.6962 22.4467L89.7114 17.121L83.01 20.3597L81.7986 19.6739Z" fill="white"/>
<path d="M88.0144 25.1655L90.0631 22.8123L90.6785 23.3481C92.14 22.7537 93.6982 21.5062 95.3529 19.6056L96.133 18.7096L100.55 22.5548L95.9007 27.8946L96.6881 28.5802L94.4855 30.7993L93.5624 29.9956L94.7443 28.638L90.2824 24.7534L88.9918 26.0164L88.0144 25.1655ZM91.8641 24.3803L94.7875 26.9254L98.5618 22.5902L96.3263 20.644L95.6959 21.368C94.4089 22.8463 93.1317 23.8504 91.8641 24.3803Z" fill="white"/>
<path d="M96.8324 30.6908L103.441 25.505L107.285 30.4045L106.247 31.2194L103.313 27.4811L101.595 28.8294L104.195 32.1429L103.157 32.9578L100.557 29.6443L98.782 31.037L101.753 34.8225L100.714 35.6375L96.8324 30.6908Z" fill="white"/>
<path d="M106.211 43.2646C105.081 42.8994 104.231 42.1479 103.663 41.01C103.094 39.8722 103.001 38.747 103.384 37.6344C103.767 36.5218 104.503 35.6938 105.591 35.1502C106.664 34.6138 107.766 34.5283 108.896 34.8935C110.027 35.2587 110.876 36.0102 111.445 37.148C112.014 38.2859 112.106 39.4111 111.723 40.5237C111.34 41.6363 110.605 42.4643 109.517 43.0079C108.444 43.5442 107.342 43.6298 106.211 43.2646ZM104.742 38.2036C104.47 38.9477 104.518 39.6883 104.886 40.4254C105.255 41.1625 105.814 41.6385 106.566 41.8533C107.321 42.0753 108.074 41.9986 108.825 41.6231C109.569 41.2512 110.077 40.6932 110.35 39.9491C110.632 39.2086 110.59 38.4698 110.221 37.7327C109.853 36.9956 109.291 36.516 108.537 36.294C107.785 36.0792 107.034 36.1595 106.283 36.535C105.538 36.9069 105.025 37.4631 104.742 38.2036Z" fill="white"/>
<path d="M110.434 53.2198C110.414 52.7562 110.561 52.3496 110.874 52C111.188 51.6584 111.585 51.4774 112.065 51.457C112.528 51.4373 112.931 51.5884 113.273 51.9101C113.615 52.2319 113.795 52.6206 113.815 53.0762C113.835 53.5398 113.684 53.9465 113.362 54.2965C113.049 54.6461 112.656 54.8309 112.185 54.851C111.721 54.8707 111.318 54.7196 110.976 54.3978C110.635 54.084 110.454 53.6914 110.434 53.2198Z" fill="white"/>
</g>
<defs>
<clipPath id="clip0_14_2757">
<rect width="125" height="125" fill="white"/>
</clipPath>
</defs>
</svg>
