<svg width="372" height="560" fill="none" xmlns="http://www.w3.org/2000/svg"><path d="m6 622.396 32.193-7.032V190.719c0-81.315 66.147-147.465 147.45-147.465 81.303 0 147.45 66.154 147.45 147.465V615.36l32.193 7.036V184.661c0-24.249-4.751-47.777-14.123-69.935-9.047-21.394-21.997-40.606-38.492-57.102-16.494-16.496-35.704-29.448-57.096-38.496C233.415 9.752 209.889 5 185.643 5c-24.246 0-47.772 4.752-69.928 14.124-21.392 9.048-40.602 22-57.096 38.496-16.495 16.496-29.445 35.708-38.492 57.102-9.372 22.158-14.123 45.69-14.123 69.935v437.735l-.004.004z" fill="url(#a)"/><mask id="b" style="mask-type:alpha" maskUnits="userSpaceOnUse" x="38" y="43" width="296" height="573"><path d="M333.094 190.719v424.644l-294.9-.004v-424.64c0-81.312 66.147-147.465 147.45-147.465 81.303 0 147.45 66.149 147.45 147.465z" fill="#D9D9D9"/></mask><g filter="url(#c)" mask="url(#b)"><path d="m17.979 621.406 30.418-6.643V206.382c0-76.812 42.138-136.329 118.959-136.329s139.322 62.491 139.322 139.299v521.159l169.74 3.677V200.659c0-22.906-4.489-45.132-13.344-66.063-8.549-20.209-20.785-38.357-36.37-53.94-15.585-15.582-135.506-169.503-155.718-178.05-20.939-8.857-43.168-13.346-66.077-13.346-22.91 0-45.139 4.489-66.074 13.342-20.212 8.547-38.364 20.781-53.949 36.364C69.302-45.452-87.444 110.71-95.993 130.92c-8.854 20.931-13.343 43.16-13.343 66.062V617.73l127.316 3.676z" fill="#8C2F42"/></g><path d="M366.552 651.582h-3.415V183.278c0-24.273-4.758-47.832-14.139-70.015-9.059-21.419-22.026-40.651-38.54-57.166-16.514-16.514-35.747-29.48-57.166-38.54C231.109 8.173 207.554 3.42 183.278 3.42c-24.277 0-47.832 4.758-70.015 14.138-21.419 9.06-40.651 22.026-57.166 38.54-16.514 16.515-29.48 35.747-38.54 57.166C8.173 135.446 3.42 159.001 3.42 183.278v468.304H0V183.278c0-24.734 4.847-48.739 14.41-71.344 9.23-21.826 22.444-41.423 39.27-58.251 16.824-16.825 36.425-30.039 58.251-39.27C134.539 4.848 158.54 0 183.274 0s48.739 4.847 71.344 14.41c21.826 9.23 41.426 22.444 58.251 39.27 16.825 16.824 30.039 36.425 39.269 58.251 9.563 22.608 14.41 46.609 14.41 71.343v468.304l.004.004z" fill="url(#d)" style="mix-blend-mode:multiply" opacity=".3"/><path opacity=".41" d="M372 651.582h-3.415V185.136c0-24.273-4.758-47.832-14.139-70.015-9.059-21.419-22.026-40.652-38.54-57.166-16.514-16.514-35.747-29.48-57.165-38.54-22.184-9.384-45.738-14.139-70.015-14.139s-47.831 4.758-70.015 14.139c-21.418 9.06-40.651 22.026-57.165 38.54-16.514 16.514-29.481 35.747-38.54 57.166-9.385 22.183-14.14 45.738-14.14 70.015v466.446H5.449V185.136c0-24.734 4.848-48.739 14.41-71.344 9.23-21.826 22.444-41.423 39.27-58.252 16.824-16.825 36.425-30.038 58.251-39.269 22.608-9.562 46.61-14.41 71.343-14.41 24.734 0 48.739 4.848 71.344 14.41 21.826 9.231 41.427 22.444 58.251 39.27 16.825 16.824 30.039 36.425 39.269 58.251 9.563 22.608 14.411 46.61 14.411 71.344v466.446H372z" fill="#73649E"/><path d="M369.17 651.583h-3.415V185.061c0-24.273-4.758-47.832-14.139-70.015-9.059-21.419-22.026-40.651-38.54-57.166-16.514-16.514-35.747-29.48-57.165-38.54-22.184-9.384-45.739-14.138-70.015-14.138-24.277 0-47.832 4.758-70.015 14.138C94.462 28.4 75.23 41.366 58.716 57.88c-16.514 16.515-29.482 35.747-38.54 57.166-9.385 22.183-14.14 45.738-14.14 70.015v466.522H2.619V185.061c0-24.734 4.848-48.739 14.41-71.344 9.23-21.826 22.444-41.423 39.27-58.251 16.824-16.825 36.425-30.039 58.251-39.27 22.608-9.562 46.61-14.41 71.343-14.41 24.734 0 48.739 4.848 71.344 14.41 21.826 9.231 41.426 22.445 58.251 39.27 16.825 16.825 30.039 36.425 39.269 58.251 9.563 22.609 14.411 46.61 14.411 71.344v466.522h.003z" fill="url(#e)"/><defs><linearGradient id="a" x1="377.5" y1="366.5" x2="34.002" y2="313.984" gradientUnits="userSpaceOnUse"><stop offset=".016" stop-color="#7566A7"/><stop offset=".469" stop-color="#615193"/><stop offset=".78" stop-color="#9283C0"/><stop offset="1" stop-color="#A398C6"/></linearGradient><linearGradient id="d" x1="0" y1="231.745" x2="366.552" y2="231.745" gradientUnits="userSpaceOnUse"><stop stop-color="#67579E"/><stop offset="1" stop-color="#9183BF"/></linearGradient><linearGradient id="e" x1="154.582" y1="-68188.4" x2="883.897" y2="-68188.4" gradientUnits="userSpaceOnUse"><stop stop-color="#F9DCBC"/><stop offset=".178" stop-color="#FEF9E9"/><stop offset=".443" stop-color="#FADEB9"/><stop offset=".528" stop-color="#F5D6AC"/><stop offset=".575" stop-color="#E6BA93"/><stop offset=".624" stop-color="#DCAF82"/><stop offset=".674" stop-color="#D2A47A"/><stop offset=".7" stop-color="#D9AD7A"/><stop offset=".818" stop-color="#EED6B5"/><stop offset=".957" stop-color="#FCEBD5"/></linearGradient><filter id="c" x="-240.303" y="-241.705" width="847.685" height="1106.86" filterUnits="userSpaceOnUse" color-interpolation-filters="sRGB"><feFlood flood-opacity="0" result="BackgroundImageFix"/><feBlend in="SourceGraphic" in2="BackgroundImageFix" result="shape"/><feGaussianBlur stdDeviation="65.483" result="effect1_foregroundBlur_803_238"/></filter></defs></svg>