<svg width="281" height="265" fill="none" xmlns="http://www.w3.org/2000/svg"><g filter="url(#a)"><path d="m105.773 117.801 3.247 2.442-3.183 4.234 1.974 1.484 4.244-5.645 3.247 2.441-4.245 5.645 2.613 1.964 9.55-12.701-13.55-10.188-9.55 12.701 2.47 1.857 3.183-4.234z" fill="#FFC482"/><mask id="b" style="mask-type:luminance" maskUnits="userSpaceOnUse" x="100" y="107" width="24" height="24"><path d="m105.773 117.801 3.247 2.442-3.183 4.234 1.978 1.487 4.245-5.645 3.242 2.438-4.245 5.645 2.613 1.964 9.55-12.701-13.55-10.188-9.55 12.701 2.47 1.857 3.183-4.234z" fill="#fff"/></mask><g mask="url(#b)" fill="#EE8919"><path opacity=".5" d="m123.268 124.678 2.118-2.818-21.316-16.028-2.119 2.818 21.317 16.028zM120.711 125.698l.883-1.174-19.262-14.483-.883 1.174 19.262 14.483z"/></g><path d="M149.42 161.497c3.847 2.257 8.268.737 12.489-.144a3.721 3.721 0 0 1 2.367.311 29.631 29.631 0 0 0 9.398-8.25c7.781-10.348 7.851-23.459.183-29.225a12.115 12.115 0 0 0-4.14-1.931 4.613 4.613 0 0 1-1.819.261c-.566-.027-1.565.557-2.088.723-.87.283-1.752.535-2.594.846a17.2 17.2 0 0 0-5.188 3.293 37.267 37.267 0 0 0-5.065 5.23c-1.317 1.751-2.126 3.757-2.984 5.754-1.258 2.928-4.385 3.191-6.497 1.946a21.93 21.93 0 0 0-1.015 9.653c.567 4.62 2.778 9.08 6.953 11.533zm-1.044-18.136a8.858 8.858 0 0 1 7.441-3.528 8.877 8.877 0 0 1 3.237-10.004 8.873 8.873 0 1 1 4.829 16.068 8.877 8.877 0 0 1-5.365 11.133 8.878 8.878 0 0 1-8.604-1.408 8.868 8.868 0 0 1-1.538-12.261z" fill="#EE8919"/><path d="M167.759 148.505a8.988 8.988 0 0 1-.572 4.694l4.864 3.657c1.339 1.007 3.544.344 4.921-1.487 1.377-1.831 1.41-4.134.065-5.145l-4.841-3.64a8.989 8.989 0 0 1-4.437 1.921zM156.34 139.919a8.863 8.863 0 0 1-.087-5.323l-44.616-33.547a4.157 4.157 0 0 0-3.121-.896 4.14 4.14 0 0 0-2.812 1.626 4.155 4.155 0 0 0-.197 4.703c.297.473.686.88 1.144 1.199l44.66 33.58a8.937 8.937 0 0 1 5.029-1.342z" fill="#FFC482"/><mask id="c" style="mask-type:luminance" maskUnits="userSpaceOnUse" x="104" y="100" width="53" height="42"><path d="M156.34 139.918a8.86 8.86 0 0 1-.087-5.322l-44.616-33.547a4.157 4.157 0 0 0-3.121-.896 4.156 4.156 0 0 0-2.812 1.626 4.155 4.155 0 0 0-.197 4.703c.297.473.686.88 1.144 1.199l44.66 33.58a8.946 8.946 0 0 1 5.029-1.343z" fill="#fff"/></mask><g mask="url(#c)"><path d="M148.601 139.063a8.991 8.991 0 0 1-.257-5.45L100.861 97.91a4.15 4.15 0 0 0-3.156-.975 4.158 4.158 0 0 0-1.83 7.607l47.514 35.726a9.078 9.078 0 0 1 5.212-1.205z" fill="#FFDAB2"/></g><path d="M174.532 153.723c7.777-10.343 7.831-23.432.163-29.197-7.668-5.766-20.222-2.077-28 8.267-7.777 10.343-7.834 23.436-.17 29.198 7.663 5.762 20.213 2.098 28.007-8.268zm-25.271-10.025a8.854 8.854 0 0 1 7.445-3.532 8.877 8.877 0 0 1 3.237-10.004 8.873 8.873 0 1 1 4.829 16.068 8.873 8.873 0 1 1-15.511-2.532z" fill="#FFC482"/></g><defs><filter id="a" x=".12" y=".122" width="280.286" height="264.594" filterUnits="userSpaceOnUse" color-interpolation-filters="sRGB"><feFlood flood-opacity="0" result="BackgroundImageFix"/><feColorMatrix in="SourceAlpha" values="0 0 0 0 0 0 0 0 0 0 0 0 0 0 0 0 0 0 127 0" result="hardAlpha"/><feOffset/><feGaussianBlur stdDeviation="10"/><feComposite in2="hardAlpha" operator="out"/><feColorMatrix values="0 0 0 0 1 0 0 0 0 0.525822 0 0 0 0 0 0 0 0 1 0"/><feBlend in2="BackgroundImageFix" result="effect1_dropShadow_392_112917"/><feColorMatrix in="SourceAlpha" values="0 0 0 0 0 0 0 0 0 0 0 0 0 0 0 0 0 0 127 0" result="hardAlpha"/><feOffset dy="4"/><feGaussianBlur stdDeviation="30"/><feComposite in2="hardAlpha" operator="out"/><feColorMatrix values="0 0 0 0 1 0 0 0 0 0.52549 0 0 0 0 0 0 0 0 1 0"/><feBlend in2="effect1_dropShadow_392_112917" result="effect2_dropShadow_392_112917"/><feColorMatrix in="SourceAlpha" values="0 0 0 0 0 0 0 0 0 0 0 0 0 0 0 0 0 0 127 0" result="hardAlpha"/><feOffset/><feGaussianBlur stdDeviation="50"/><feComposite in2="hardAlpha" operator="out"/><feColorMatrix values="0 0 0 0 1 0 0 0 0 0.52549 0 0 0 0 0 0 0 0 1 0"/><feBlend in2="effect2_dropShadow_392_112917" result="effect3_dropShadow_392_112917"/><feBlend in="SourceGraphic" in2="effect3_dropShadow_392_112917" result="shape"/></filter></defs></svg>