<svg width="125" height="125" viewBox="0 0 125 125" fill="none" xmlns="http://www.w3.org/2000/svg">
<path d="M108.479 66.4995C108.596 65.2891 109.108 64.3179 110.014 63.5857C110.929 62.8544 111.996 62.5476 113.214 62.6654C114.424 62.7824 115.408 63.2875 116.166 64.1805C116.923 65.0736 117.242 66.1452 117.121 67.3954C117.051 68.12 116.88 68.7224 116.608 69.2025C116.336 69.6905 115.968 70.1371 115.502 70.5422L114.507 69.4935C115.272 68.812 115.694 68.0651 115.772 67.2529C115.849 66.4566 115.626 65.768 115.104 65.187C114.581 64.614 113.901 64.2871 113.065 64.2062C112.237 64.1261 111.507 64.3208 110.875 64.7901C110.25 65.2602 109.9 65.8894 109.824 66.6777C109.778 67.1555 109.825 67.586 109.964 67.9692C110.112 68.3532 110.35 68.758 110.679 69.1836L109.632 70.0348C109.184 69.5173 108.862 68.9838 108.665 68.4344C108.469 67.885 108.407 67.24 108.479 66.4995Z" fill="white"/>
<path d="M108.052 71.8561L116.032 74.4793L115.541 75.9726L110.97 77.1605L113.945 80.829L113.454 82.3224L105.474 79.6993L105.935 78.2971L111.658 80.1782L108.724 76.4222L108.739 76.3766L113.299 75.1092L107.599 73.2355L108.052 71.8561Z" fill="white"/>
<path d="M101.5 89.2033C101.215 88.0502 101.405 86.9321 102.072 85.849C102.739 84.7659 103.646 84.0938 104.794 83.8326C105.941 83.5715 107.032 83.7597 108.068 84.3973C109.09 85.0266 109.743 85.9177 110.029 87.0709C110.315 88.224 110.124 89.3421 109.457 90.4252C108.79 91.5083 107.883 92.1804 106.736 92.4416C105.589 92.7027 104.497 92.5145 103.462 91.8768C102.44 91.2476 101.786 90.3564 101.5 89.2033ZM105.026 85.2863C104.25 85.4475 103.646 85.8789 103.214 86.5805C102.782 87.2821 102.673 88.0088 102.887 88.7604C103.096 89.5188 103.558 90.1183 104.274 90.5587C104.982 90.995 105.724 91.1326 106.5 90.9714C107.278 90.8212 107.883 90.3953 108.315 89.6937C108.747 88.9921 108.859 88.262 108.649 87.5036C108.436 86.752 107.971 86.1559 107.256 85.7154C106.548 85.2792 105.804 85.1361 105.026 85.2863Z" fill="white"/>
<path d="M97.285 92.6382L102.435 97.4266L104.249 95.4757L105.251 96.4073L100.609 101.399L99.6074 100.467L101.421 98.5163L96.2717 93.7279L97.285 92.6382Z" fill="white"/>
<path d="M92.8422 97.1818L97.8576 103.92L95.2008 105.898C94.4179 106.48 93.6425 106.738 92.8747 106.672C92.107 106.605 91.4652 106.225 90.9493 105.532C90.4096 104.807 90.2459 104.051 90.4584 103.264C90.6644 102.483 91.1557 101.803 91.9323 101.225L93.2703 100.229L91.6582 98.0631L92.8422 97.1818ZM94.0656 101.298L92.689 102.322C92.2462 102.652 91.9769 103.027 91.8809 103.447C91.785 103.868 91.8732 104.261 92.1454 104.627C92.432 105.012 92.7833 105.209 93.1993 105.218C93.6136 105.239 94.0454 105.082 94.4946 104.748L95.8711 103.723L94.0656 101.298Z" fill="white"/>
<path d="M86.028 102.066L89.7548 109.594L84.1734 112.357L83.5877 111.174L87.8464 109.066L86.8774 107.109L83.1027 108.977L82.517 107.794L86.2918 105.926L85.2909 103.904L80.9784 106.039L80.3927 104.856L86.028 102.066Z" fill="white"/>
<path d="M76.462 106.209L78.404 112.967L80.9644 112.232L81.3422 113.546L74.7913 115.429L74.4135 114.114L76.9739 113.378L75.0319 106.62L76.462 106.209Z" fill="white"/>
<path d="M70.352 107.791L71.1605 116.152L69.7033 116.293L69.4122 113.283L67.4892 113.469C66.5336 113.561 65.7509 113.404 65.1408 112.997C64.5236 112.598 64.175 111.985 64.0949 111.157C64.0133 110.313 64.2313 109.617 64.7489 109.068C65.2673 108.528 66.0122 108.211 66.9837 108.117L70.352 107.791ZM69.0218 109.246L67.1346 109.428C66.5852 109.482 66.1747 109.642 65.9032 109.909C65.6245 110.185 65.5078 110.558 65.5532 111.028C65.5948 111.458 65.7777 111.77 66.1018 111.964C66.4268 112.165 66.8679 112.239 67.4253 112.185L69.2886 112.005L69.0218 109.246Z" fill="white"/>
<path d="M58.1172 108.288L56.6381 116.557L55.1852 116.297L55.929 112.139L51.2516 115.593L49.4679 115.274L53.5414 112.333L50.7934 106.978L52.5535 107.293L54.7111 111.519L56.2353 110.426L56.6643 108.028L58.1172 108.288Z" fill="white"/>
<path d="M48.9855 106.491L45.8876 114.299L44.538 113.763L46.7994 108.064L40.5894 112.197L39.3067 111.688L42.4045 103.88L43.7542 104.415L41.4972 110.104L47.6916 105.978L48.9855 106.491Z" fill="white"/>
<path d="M40.4107 102.904L35.8237 109.941L34.5872 109.135L36.4941 106.21L33.1364 104.021L31.2296 106.946L29.993 106.14L34.58 99.1034L35.8165 99.9094L33.8835 102.875L37.2411 105.064L39.1742 102.098L40.4107 102.904Z" fill="white"/>
<path d="M26.8523 93.4413C28.0403 93.4343 29.0823 93.8822 29.9785 94.7849C30.8747 95.6876 31.315 96.7272 31.2994 97.9038C31.2838 99.0804 30.8445 100.097 29.9816 100.954C29.1299 101.799 28.1102 102.225 26.9222 102.232C25.7342 102.239 24.6921 101.792 23.796 100.889C22.8998 99.9861 22.4595 98.9465 22.4751 97.7699C22.4907 96.5933 22.93 95.5767 23.7929 94.72C24.6445 93.8745 25.6643 93.4483 26.8523 93.4413ZM29.8318 97.7881C29.8573 96.9963 29.5798 96.308 28.9993 95.7232C28.4188 95.1384 27.7381 94.8616 26.9573 94.8927C26.1709 94.9181 25.4797 95.2267 24.8836 95.8185C24.2931 96.4047 23.9851 97.0937 23.9596 97.8856C23.9228 98.6774 24.1947 99.3657 24.7752 99.9505C25.3557 100.535 26.0392 100.815 26.8256 100.79C27.6064 100.758 28.2948 100.447 28.8909 99.8551C29.4814 99.269 29.795 98.58 29.8318 97.7881Z" fill="white"/>
<path d="M16.9443 79.683C17.1073 80.1175 17.0943 80.5496 16.9053 80.9794C16.7134 81.4017 16.3928 81.6972 15.9434 81.8658C15.5089 82.0288 15.0792 82.0106 14.654 81.8113C14.2289 81.6119 13.9362 81.2988 13.776 80.8719C13.613 80.4374 13.6298 80.0039 13.8263 79.5713C14.0154 79.1415 14.3309 78.8437 14.7728 78.6778C15.2072 78.5148 15.637 78.533 16.0621 78.7324C16.4844 78.9242 16.7785 79.2411 16.9443 79.683Z" fill="white"/>
<path d="M16.3937 59.4898C16.3281 60.704 15.8578 61.696 14.983 62.4659C14.1001 63.2354 13.0476 63.5871 11.8254 63.521C10.6112 63.4553 9.60668 62.9924 8.81197 62.1322C8.01725 61.2721 7.6538 60.2149 7.72162 58.9607C7.76093 58.2338 7.90603 57.6247 8.15691 57.1336C8.40823 56.6344 8.75768 56.1726 9.20525 55.7482L10.2445 56.7537C9.50888 57.4671 9.11905 58.2311 9.075 59.0459C9.0318 59.8448 9.28353 60.5233 9.83018 61.0817C10.3773 61.632 11.0702 61.9299 11.909 61.9752C12.7397 62.0201 13.461 61.7948 14.0726 61.2991C14.6763 60.8029 14.9995 60.1595 15.0423 59.3686C15.0682 58.8893 15.0032 58.4612 14.8473 58.0842C14.6835 57.7068 14.4284 57.3125 14.0821 56.9012L15.0919 56.0064C15.5617 56.5045 15.9061 57.0238 16.1253 57.5645C16.3444 58.1051 16.4339 58.7468 16.3937 59.4898Z" fill="white"/>
<path d="M16.5862 54.0955L8.50419 51.8063L8.93259 50.2938L13.4508 48.917L10.3257 45.3753L10.7541 43.8628L18.8362 46.152L18.4339 47.5721L12.6379 45.9305L15.7253 49.5613L15.7123 49.6074L11.209 51.0633L16.9819 52.6985L16.5862 54.0955Z" fill="white"/>
<path d="M22.3302 36.5937C22.6667 37.7331 22.5256 38.8585 21.9071 39.97C21.2886 41.0815 20.412 41.7931 19.2774 42.1046C18.1427 42.4162 17.0441 42.2764 15.9815 41.6851C14.9329 41.1016 14.2404 40.2402 13.9039 39.1008C13.5675 37.9615 13.7085 36.8361 14.327 35.7246C14.9455 34.613 15.8221 33.9015 16.9568 33.5899C18.0915 33.2783 19.1901 33.4182 20.2527 34.0094C21.3012 34.5929 21.9938 35.4544 22.3302 36.5937ZM18.9811 40.6627C19.749 40.4674 20.3332 40.0097 20.7339 39.2897C21.1346 38.5697 21.2116 37.8389 20.965 37.0975C20.7223 36.349 20.234 35.7706 19.4999 35.3621C18.7729 34.9576 18.0255 34.8529 17.2577 35.0482C16.4867 35.2326 15.9009 35.6848 15.5003 36.4049C15.0996 37.1249 15.0206 37.8591 15.2633 38.6076C15.5099 39.349 16.0002 39.924 16.7342 40.3324C17.4612 40.737 18.2102 40.8471 18.9811 40.6627Z" fill="white"/>
<path d="M26.4432 32.8909L21.1061 28.3122L19.3715 30.3341L18.3333 29.4433L22.7713 24.2702L23.8096 25.1609L22.075 27.1828L27.4121 31.7616L26.4432 32.8909Z" fill="white"/>
<path d="M30.5678 28.2666L25.2625 21.754L27.8304 19.6622C28.5871 19.0458 29.3504 18.7541 30.1203 18.7873C30.8903 18.8205 31.5481 19.172 32.0938 19.8419C32.6647 20.5427 32.8613 21.2907 32.6834 22.0856C32.5117 22.8755 32.0506 23.5762 31.3001 24.1876L30.0069 25.241L31.7122 27.3344L30.5678 28.2666ZM29.1656 24.2083L30.4961 23.1245C30.924 22.7759 31.1767 22.3895 31.2542 21.9652C31.3317 21.541 31.2264 21.1521 30.9384 20.7985C30.6352 20.4264 30.2757 20.2446 29.8597 20.2533C29.4448 20.2508 29.0203 20.4263 28.5862 20.78L27.2557 21.8638L29.1656 24.2083Z" fill="white"/>
<path d="M37.0752 23.1127L33.0179 15.7575L38.4712 12.7493L39.1088 13.9051L34.9478 16.2004L36.0027 18.1128L39.6908 16.0783L40.3284 17.2341L36.6403 19.2686L37.73 21.2439L41.9435 18.9197L42.581 20.0755L37.0752 23.1127Z" fill="white"/>
<path d="M46.5145 18.4848L44.2934 11.8128L41.7658 12.6542L41.3337 11.3562L47.8007 9.20338L48.2328 10.5013L45.7052 11.3428L47.9263 18.0148L46.5145 18.4848Z" fill="white"/>
<path d="M52.6333 16.597L51.4721 8.27762L52.9221 8.07525L53.3401 11.0702L55.2535 10.8032C56.2043 10.6704 56.9931 10.7946 57.6198 11.1756C58.2533 11.5476 58.6275 12.1456 58.7425 12.9697C58.8597 13.8095 58.6714 14.5143 58.1774 15.0841C57.6823 15.6459 56.9514 15.9943 55.9848 16.1292L52.6333 16.597ZM53.9008 15.0873L55.7786 14.8252C56.3253 14.7489 56.7286 14.5714 56.9886 14.2928C57.2554 14.0052 57.3562 13.6276 57.2909 13.1601C57.2312 12.7323 57.0353 12.4285 56.7033 12.2486C56.3701 12.0609 55.9262 12.0057 55.3716 12.0831L53.5176 12.3419L53.9008 15.0873Z" fill="white"/>
<path d="M64.5848 15.5406L65.6821 7.21252L67.1454 7.40533L66.5937 11.5931L71.1072 7.9273L72.9037 8.16399L68.9698 11.2889L71.9611 16.5124L70.1884 16.2788L67.8387 12.1566L66.3664 13.3182L66.0482 15.7334L64.5848 15.5406Z" fill="white"/>
<path d="M73.7926 16.8697L76.5357 8.93024L77.9081 9.4044L75.9056 15.2002L81.9232 10.7916L83.2276 11.2423L80.4845 19.1818L79.1121 18.7076L81.1106 12.9231L75.1083 17.3243L73.7926 16.8697Z" fill="white"/>
<path d="M82.8027 20.1555L87.1017 12.939L88.3698 13.6944L86.5826 16.6944L90.026 18.7456L91.8131 15.7456L93.0812 16.501L88.7822 23.7176L87.5141 22.9622L89.3258 19.9209L85.8825 17.8697L84.0708 20.9109L82.8027 20.1555Z" fill="white"/>
<path d="M96.6472 28.9284C95.4606 28.9872 94.4 28.5852 93.4654 27.7224C92.5307 26.8596 92.0455 25.8401 92.0098 24.664C91.9741 23.4879 92.3686 22.453 93.1934 21.5595C94.0074 20.6778 95.0076 20.2075 96.1941 20.1487C97.3807 20.09 98.4413 20.492 99.3759 21.3547C100.311 22.2175 100.796 23.237 100.832 24.4131C100.867 25.5893 100.473 26.6241 99.6479 27.5176C98.8339 28.3994 97.8337 28.8696 96.6472 28.9284ZM93.481 24.7156C93.49 25.5078 93.7973 26.1834 94.4027 26.7423C95.0082 27.3012 95.7003 27.5481 96.479 27.483C97.2635 27.4233 97.9407 27.0848 98.5104 26.4676C99.0747 25.8563 99.3524 25.1545 99.3434 24.3622C99.3456 23.5696 99.044 22.8938 98.4385 22.3348C97.8331 21.7759 97.1381 21.5263 96.3535 21.586C95.5749 21.6511 94.9006 21.9923 94.3309 22.6095C93.7665 23.2209 93.4832 23.9229 93.481 24.7156Z" fill="white"/>
<path d="M107.23 42.276C107.047 41.8493 107.041 41.417 107.21 40.9792C107.383 40.5487 107.69 40.2391 108.132 40.0505C108.558 39.8681 108.988 39.867 109.422 40.047C109.856 40.2271 110.162 40.5268 110.341 40.9461C110.524 41.3728 110.526 41.8066 110.349 42.2476C110.18 42.6855 109.878 42.9972 109.444 43.1827C109.017 43.365 108.587 43.3661 108.154 43.1861C107.723 43.0134 107.415 42.71 107.23 42.276Z" fill="white"/>
</svg>
