<svg width="372" height="560" viewBox="0 0 372 560" fill="none" xmlns="http://www.w3.org/2000/svg">
<path d="M6.00024 622.396L38.1929 615.364V190.719C38.1929 109.404 104.34 43.2544 185.643 43.2544C266.946 43.2544 333.093 109.408 333.093 190.719V615.36L365.286 622.396V184.661C365.286 160.412 360.535 136.884 351.163 114.726C342.116 93.332 329.166 74.1198 312.671 57.624C296.177 41.1281 276.967 28.1761 255.575 19.1284C233.415 9.75193 209.889 5.00037 185.643 5.00037C161.397 5.00037 137.871 9.75193 115.715 19.1244C94.3231 28.1722 75.1128 41.1242 58.6186 57.62C42.1244 74.1159 29.1737 93.3281 20.1268 114.722C10.7553 136.88 6.00418 160.412 6.00418 184.657V622.392L6.00024 622.396Z" fill="url(#paint0_linear_803_238)"/>
<mask id="mask0_803_238" style="mask-type:alpha" maskUnits="userSpaceOnUse" x="38" y="43" width="296" height="573">
<path d="M333.094 190.719V615.363L38.1938 615.359V190.719C38.1938 109.407 104.341 43.2537 185.644 43.2537C266.947 43.2537 333.094 109.403 333.094 190.719Z" fill="#D9D9D9"/>
</mask>
<g mask="url(#mask0_803_238)">
<g filter="url(#filter0_f_803_238)">
<path d="M17.9785 621.406L48.3965 614.763V206.382C48.3965 129.57 90.5352 70.0533 167.356 70.0533C244.177 70.0533 306.678 132.544 306.678 209.352V730.511L476.418 734.188V200.659C476.418 177.753 471.929 155.527 463.074 134.596C454.525 114.387 442.289 96.2386 426.704 80.6562C411.119 65.0738 291.198 -88.8475 270.986 -97.3943C250.047 -106.251 227.818 -110.74 204.909 -110.74C181.999 -110.74 159.77 -106.251 138.835 -97.398C118.623 -88.8512 100.471 -76.6165 84.8865 -61.0341C69.3016 -45.4516 -87.4449 110.711 -95.9931 130.921C-104.848 151.852 -109.337 174.081 -109.337 196.983V617.73L17.9785 621.406Z" fill="#8C2F42"/>
</g>
</g>
<g opacity="0.3">
<path d="M366.552 651.582H363.137V183.278C363.137 159.005 358.379 135.446 348.998 113.263C339.939 91.8443 326.972 72.6117 310.458 56.0975C293.944 39.5833 274.711 26.6163 253.292 17.5573C231.109 8.17315 207.554 3.41857 183.278 3.41857C159.001 3.41857 135.446 8.17672 113.263 17.5573C91.8443 26.6163 72.6117 39.5833 56.0975 56.0975C39.5833 72.6117 26.6163 91.8443 17.5573 113.263C8.17314 135.446 3.41857 159.001 3.41857 183.278V651.582H0V183.278C0 158.544 4.84745 134.539 14.4102 111.934C23.6407 90.1082 36.8542 70.5112 53.6791 53.6827C70.5041 36.8577 90.1046 23.6442 111.931 14.4137C134.539 4.84745 158.54 0 183.274 0C208.008 0 232.013 4.84745 254.618 14.4102C276.444 23.6407 296.044 36.8542 312.869 53.6791C329.694 70.5041 342.908 90.1046 352.138 111.931C361.701 134.539 366.548 158.54 366.548 183.274V651.578L366.552 651.582Z" fill="url(#paint1_linear_803_238)" style="mix-blend-mode:multiply"/>
</g>
<path opacity="0.41" d="M372 651.582H368.585V185.136C368.585 160.863 363.827 137.304 354.446 115.121C345.387 93.702 332.42 74.4694 315.906 57.9553C299.392 41.4411 280.159 28.4741 258.741 19.415C236.557 10.0309 213.003 5.27633 188.726 5.27633C164.449 5.27633 140.895 10.0345 118.711 19.415C97.2925 28.4741 78.0599 41.4411 61.5457 57.9553C45.0315 74.4694 32.0645 93.702 23.0055 115.121C13.6214 137.304 8.86682 160.859 8.86682 185.136V651.582H5.44824V185.136C5.44824 160.402 10.2957 136.397 19.8584 113.792C29.0889 91.966 42.3024 72.369 59.1274 55.5405C75.9523 38.7155 95.5529 25.502 117.379 16.2715C139.987 6.70878 163.989 1.86133 188.722 1.86133C213.456 1.86133 237.461 6.70878 260.066 16.2715C281.892 25.502 301.493 38.7155 318.317 55.5405C335.142 72.3654 348.356 91.966 357.586 113.792C367.149 136.4 371.997 160.402 371.997 185.136V651.582H372Z" fill="#73649E"/>
<path d="M369.17 651.583H365.755V185.061C365.755 160.788 360.997 137.229 351.616 115.046C342.557 93.6273 329.59 74.3947 313.076 57.8805C296.562 41.3664 277.329 28.3993 255.911 19.3403C233.727 9.95619 210.172 5.20162 185.896 5.20162C161.619 5.20162 138.064 9.95976 115.881 19.3403C94.4624 28.3993 75.2298 41.3664 58.7156 57.8805C42.2015 74.3947 29.2345 93.6273 20.1754 115.046C10.7913 137.229 6.03674 160.784 6.03674 185.061V651.583H2.61816V185.061C2.61816 160.327 7.46561 136.322 17.0283 113.717C26.2588 91.8912 39.4723 72.2943 56.2973 55.4657C73.1223 38.6408 92.7228 25.4273 114.549 16.1968C137.157 6.63407 161.159 1.78662 185.892 1.78662C210.626 1.78662 234.631 6.63407 257.236 16.1968C279.062 25.4273 298.662 38.6408 315.487 55.4657C332.312 72.2907 345.526 91.8912 354.756 113.717C364.319 136.326 369.167 160.327 369.167 185.061V651.583H369.17Z" fill="url(#paint2_linear_803_238)"/>
<defs>
<filter id="filter0_f_803_238" x="-240.303" y="-241.705" width="847.685" height="1106.86" filterUnits="userSpaceOnUse" color-interpolation-filters="sRGB">
<feFlood flood-opacity="0" result="BackgroundImageFix"/>
<feBlend mode="normal" in="SourceGraphic" in2="BackgroundImageFix" result="shape"/>
<feGaussianBlur stdDeviation="65.4826" result="effect1_foregroundBlur_803_238"/>
</filter>
<linearGradient id="paint0_linear_803_238" x1="377.5" y1="366.5" x2="34.0024" y2="313.984" gradientUnits="userSpaceOnUse">
<stop offset="0.0161727" stop-color="#7566A7"/>
<stop offset="0.469374" stop-color="#615193"/>
<stop offset="0.78021" stop-color="#9283C0"/>
<stop offset="1" stop-color="#A398C6"/>
</linearGradient>
<linearGradient id="paint1_linear_803_238" x1="0" y1="231.745" x2="366.552" y2="231.745" gradientUnits="userSpaceOnUse">
<stop stop-color="#67579E"/>
<stop offset="1" stop-color="#9183BF"/>
</linearGradient>
<linearGradient id="paint2_linear_803_238" x1="154.582" y1="-68188.4" x2="883.897" y2="-68188.4" gradientUnits="userSpaceOnUse">
<stop stop-color="#F9DCBC"/>
<stop offset="0.178" stop-color="#FEF9E9"/>
<stop offset="0.4427" stop-color="#FADEB9"/>
<stop offset="0.5281" stop-color="#F5D6AC"/>
<stop offset="0.5754" stop-color="#E6BA93"/>
<stop offset="0.6242" stop-color="#DCAF82"/>
<stop offset="0.6737" stop-color="#D2A47A"/>
<stop offset="0.6996" stop-color="#D9AD7A"/>
<stop offset="0.8182" stop-color="#EED6B5"/>
<stop offset="0.9565" stop-color="#FCEBD5"/>
</linearGradient>
</defs>
</svg>
