<svg width="281" height="265" viewBox="0 0 281 265" fill="none" xmlns="http://www.w3.org/2000/svg">
<g filter="url(#filter0_ddd_392_112917)">
<path d="M105.773 117.801L109.02 120.243L105.837 124.477L107.811 125.961L112.055 120.316L115.302 122.757L111.057 128.402L113.67 130.366L123.22 117.665L109.67 107.477L100.12 120.178L102.59 122.035L105.773 117.801Z" fill="#FFC482"/>
<mask id="mask0_392_112917" style="mask-type:luminance" maskUnits="userSpaceOnUse" x="100" y="107" width="24" height="24">
<path d="M105.773 117.801L109.02 120.243L105.837 124.477L107.815 125.964L112.06 120.319L115.302 122.757L111.057 128.402L113.67 130.366L123.22 117.665L109.67 107.477L100.12 120.178L102.59 122.035L105.773 117.801Z" fill="white"/>
</mask>
<g mask="url(#mask0_392_112917)">
<path opacity="0.5" d="M123.268 124.678L125.386 121.86L104.07 105.832L101.951 108.65L123.268 124.678Z" fill="#EE8919"/>
<path opacity="0.5" d="M120.711 125.698L121.594 124.524L102.332 110.041L101.449 111.215L120.711 125.698Z" fill="#EE8919"/>
</g>
<path d="M149.42 161.497C153.267 163.754 157.688 162.234 161.909 161.353C162.711 161.194 163.542 161.303 164.276 161.664C167.96 159.614 171.164 156.801 173.674 153.414C181.455 143.066 181.525 129.955 173.857 124.189C172.612 123.289 171.207 122.633 169.717 122.258C169.134 122.466 168.516 122.555 167.898 122.519C167.332 122.492 166.333 123.076 165.81 123.242C164.94 123.525 164.058 123.777 163.216 124.088C161.303 124.865 159.546 125.981 158.028 127.381C156.173 128.955 154.476 130.707 152.963 132.611C151.646 134.362 150.837 136.368 149.979 138.365C148.721 141.293 145.594 141.556 143.482 140.311C142.427 143.412 142.08 146.711 142.467 149.964C143.034 154.584 145.245 159.044 149.42 161.497ZM148.376 143.361C149.238 142.215 150.366 141.295 151.662 140.681C152.958 140.066 154.384 139.775 155.817 139.833C155.22 138.038 155.212 136.099 155.794 134.3C156.376 132.5 157.519 130.933 159.054 129.829C160.59 128.724 162.438 128.139 164.33 128.159C166.221 128.179 168.057 128.803 169.569 129.939C171.081 131.076 172.19 132.666 172.734 134.478C173.278 136.29 173.23 138.228 172.595 140.01C171.96 141.792 170.772 143.324 169.205 144.383C167.637 145.442 165.773 145.973 163.883 145.897C164.365 147.347 164.465 148.896 164.173 150.395C163.881 151.894 163.207 153.293 162.216 154.455C161.226 155.617 159.952 156.504 158.518 157.03C157.084 157.556 155.538 157.702 154.031 157.456C152.524 157.209 151.105 156.578 149.914 155.622C148.722 154.667 147.797 153.421 147.228 152.003C146.66 150.586 146.466 149.045 146.667 147.531C146.868 146.017 147.457 144.581 148.376 143.361Z" fill="#EE8919"/>
<path d="M167.759 148.505C167.991 150.093 167.793 151.713 167.187 153.199L172.051 156.856C173.39 157.863 175.595 157.2 176.972 155.369C178.349 153.538 178.382 151.235 177.037 150.224L172.196 146.584C170.921 147.617 169.386 148.282 167.759 148.505Z" fill="#FFC482"/>
<path d="M156.34 139.919C155.766 138.195 155.736 136.337 156.253 134.596L111.637 101.049C111.204 100.698 110.704 100.437 110.168 100.283C109.631 100.129 109.07 100.085 108.516 100.153C107.962 100.221 107.427 100.4 106.944 100.68C106.461 100.959 106.039 101.333 105.704 101.779C105.369 102.225 105.127 102.734 104.993 103.275C104.858 103.817 104.835 104.38 104.923 104.931C105.011 105.482 105.21 106.01 105.507 106.482C105.804 106.955 106.193 107.362 106.651 107.681L151.311 141.261C152.817 140.325 154.568 139.857 156.34 139.919Z" fill="#FFC482"/>
<mask id="mask1_392_112917" style="mask-type:luminance" maskUnits="userSpaceOnUse" x="104" y="100" width="53" height="42">
<path d="M156.34 139.918C155.766 138.195 155.736 136.337 156.253 134.596L111.637 101.049C111.204 100.698 110.704 100.437 110.168 100.283C109.631 100.129 109.07 100.085 108.516 100.153C107.962 100.221 107.427 100.4 106.944 100.679C106.461 100.959 106.039 101.333 105.704 101.779C105.369 102.225 105.127 102.734 104.993 103.275C104.858 103.817 104.835 104.38 104.923 104.931C105.011 105.482 105.21 106.01 105.507 106.482C105.804 106.955 106.193 107.362 106.651 107.681L151.311 141.261C152.817 140.325 154.568 139.857 156.34 139.918Z" fill="white"/>
</mask>
<g mask="url(#mask1_392_112917)">
<path d="M148.601 139.063C147.953 137.317 147.863 135.412 148.344 133.613L100.861 97.9103C100.43 97.5407 99.9273 97.2635 99.3844 97.0958C98.8416 96.9281 98.2701 96.8734 97.7054 96.9352C97.1406 96.997 96.5945 97.1738 96.1007 97.4549C95.6069 97.736 95.176 98.1153 94.8346 98.5694C94.4931 99.0235 94.2484 99.5428 94.1155 100.095C93.9826 100.648 93.9643 101.221 94.0618 101.781C94.1592 102.341 94.3704 102.875 94.6823 103.349C94.9941 103.824 95.4 104.23 95.8748 104.542L143.389 140.268C144.966 139.352 146.782 138.932 148.601 139.063Z" fill="#FFDAB2"/>
</g>
<path d="M174.532 153.723C182.309 143.38 182.363 130.291 174.695 124.526C167.027 118.76 154.473 122.449 146.695 132.793C138.918 143.136 138.861 156.229 146.525 161.991C154.188 167.753 166.738 164.089 174.532 153.723ZM149.261 143.698C150.123 142.55 151.251 141.629 152.548 141.014C153.845 140.398 155.272 140.107 156.706 140.166C156.109 138.371 156.101 136.432 156.683 134.633C157.266 132.833 158.408 131.266 159.943 130.162C161.479 129.057 163.327 128.472 165.219 128.492C167.11 128.512 168.946 129.136 170.458 130.272C171.97 131.409 173.079 132.999 173.623 134.811C174.168 136.623 174.119 138.561 173.484 140.343C172.849 142.125 171.661 143.657 170.094 144.716C168.527 145.775 166.662 146.306 164.772 146.23C165.254 147.679 165.354 149.228 165.062 150.727C164.77 152.226 164.097 153.624 163.106 154.787C162.116 155.949 160.842 156.836 159.409 157.362C157.975 157.888 156.43 158.035 154.923 157.789C153.416 157.543 151.998 156.912 150.806 155.958C149.614 155.003 148.688 153.757 148.119 152.34C147.55 150.923 147.356 149.383 147.556 147.869C147.756 146.355 148.343 144.919 149.261 143.698Z" fill="#FFC482"/>
</g>
<defs>
<filter id="filter0_ddd_392_112917" x="0.120117" y="0.122002" width="280.286" height="264.594" filterUnits="userSpaceOnUse" color-interpolation-filters="sRGB">
<feFlood flood-opacity="0" result="BackgroundImageFix"/>
<feColorMatrix in="SourceAlpha" type="matrix" values="0 0 0 0 0 0 0 0 0 0 0 0 0 0 0 0 0 0 127 0" result="hardAlpha"/>
<feOffset/>
<feGaussianBlur stdDeviation="10"/>
<feComposite in2="hardAlpha" operator="out"/>
<feColorMatrix type="matrix" values="0 0 0 0 1 0 0 0 0 0.525822 0 0 0 0 0 0 0 0 1 0"/>
<feBlend mode="normal" in2="BackgroundImageFix" result="effect1_dropShadow_392_112917"/>
<feColorMatrix in="SourceAlpha" type="matrix" values="0 0 0 0 0 0 0 0 0 0 0 0 0 0 0 0 0 0 127 0" result="hardAlpha"/>
<feOffset dy="4"/>
<feGaussianBlur stdDeviation="30"/>
<feComposite in2="hardAlpha" operator="out"/>
<feColorMatrix type="matrix" values="0 0 0 0 1 0 0 0 0 0.52549 0 0 0 0 0 0 0 0 1 0"/>
<feBlend mode="normal" in2="effect1_dropShadow_392_112917" result="effect2_dropShadow_392_112917"/>
<feColorMatrix in="SourceAlpha" type="matrix" values="0 0 0 0 0 0 0 0 0 0 0 0 0 0 0 0 0 0 127 0" result="hardAlpha"/>
<feOffset/>
<feGaussianBlur stdDeviation="50"/>
<feComposite in2="hardAlpha" operator="out"/>
<feColorMatrix type="matrix" values="0 0 0 0 1 0 0 0 0 0.52549 0 0 0 0 0 0 0 0 1 0"/>
<feBlend mode="normal" in2="effect2_dropShadow_392_112917" result="effect3_dropShadow_392_112917"/>
<feBlend mode="normal" in="SourceGraphic" in2="effect3_dropShadow_392_112917" result="shape"/>
</filter>
</defs>
</svg>
