<svg width="125" height="125" viewBox="0 0 125 125" fill="none" xmlns="http://www.w3.org/2000/svg">
<g clip-path="url(#clip0_387_51852)">
<path d="M111.252 76.912C110.707 76.8034 110.189 76.5858 109.73 76.2723C109.271 75.9589 108.88 75.556 108.581 75.0878C108.281 74.6197 108.079 74.0959 107.987 73.5479C107.895 72.9998 107.915 72.4388 108.045 71.8986C108.15 71.3175 108.376 70.7649 108.708 70.2764C109.04 69.788 109.471 69.3745 109.973 69.0626L110.806 70.1865C110.439 70.4066 110.12 70.6973 109.867 71.0416C109.613 71.386 109.43 71.7772 109.329 72.1927C109.255 72.5544 109.254 72.9275 109.328 73.2894C109.402 73.6513 109.548 73.9945 109.758 74.2984C109.968 74.6024 110.237 74.8607 110.55 75.0578C110.862 75.255 111.211 75.3869 111.576 75.4457C111.931 75.5444 112.302 75.571 112.667 75.5236C113.033 75.4762 113.385 75.3558 113.703 75.1697C114.02 74.9836 114.298 74.7356 114.518 74.4403C114.738 74.145 114.897 73.8086 114.984 73.4508C115.076 73.0181 115.077 72.5709 114.986 72.138C114.894 71.7051 114.713 71.2962 114.454 70.9376L115.567 70.241C115.938 70.7427 116.192 71.3206 116.312 71.9328C116.431 72.545 116.413 73.176 116.259 73.7804C116.145 74.3196 115.924 74.8302 115.608 75.2819C115.292 75.7336 114.888 76.1171 114.421 76.4094C113.954 76.7017 113.432 76.8968 112.888 76.9832C112.343 77.0695 111.787 77.0453 111.252 76.912Z" fill="white"/>
<path d="M117.058 68.9614L115.89 68.7747C115.944 68.6253 115.973 68.4684 115.977 68.3098C116.015 67.4832 115.522 66.6979 110.648 66.4989L109.042 66.4353L109.271 60.8549L117.426 61.1866L117.366 62.6159L110.516 62.3365L110.395 65.1504L111.122 65.1808C116.298 65.3909 117.296 66.3752 117.234 67.9752C117.208 68.309 117.149 68.6393 117.058 68.9614Z" fill="white"/>
<path d="M116.98 58.2203L115.819 57.8199C115.95 57.4944 115.991 57.1394 115.936 56.7927C115.873 56.528 115.742 56.2841 115.557 56.0845C115.372 55.8849 115.138 55.7363 114.879 55.653L109.25 59.8476L109.041 58.2637L113.375 55.0908L108.375 53.5396L108.154 52.0029L114.903 54.2648C116.369 54.7537 117.004 55.5072 117.148 56.5538C117.239 57.1145 117.181 57.6892 116.98 58.2203Z" fill="white"/>
<path d="M108.091 51.124L107.591 49.798L114.025 47.3982L112.927 44.4027L106.499 46.8041L105.996 45.4647L112.43 43.0649L111.331 40.0694L104.903 42.4708L104.403 41.1447L112.036 38.2934L115.77 48.2914L108.091 51.124Z" fill="white"/>
<path d="M101.818 37.3823L101.088 36.2737L105.985 28.7825L106.817 30.052L105.626 31.8181L107.736 35.0405L109.841 34.6611L110.64 35.8899L101.818 37.3823ZM104.848 32.9467L102.898 35.91L106.387 35.2933L104.848 32.9467Z" fill="white"/>
<path d="M98.7174 30.9079L100.439 32.8344L99.452 33.7233L95.0679 28.7935L96.0534 27.9105L97.7747 29.837L102.862 25.2944L103.839 26.3808L98.7174 30.9079Z" fill="white"/>
<path d="M94.1765 28.0028L93.0872 27.0764L94.964 24.8099L93.5136 23.6218C92.0924 22.4669 91.6857 20.9821 92.7489 19.7143C93.8122 18.4466 95.352 18.4035 96.8141 19.5947L99.3592 21.6662L94.1765 28.0028ZM95.9928 20.6231C95.1709 19.9524 94.3897 19.9328 93.805 20.6698C93.2204 21.4067 93.4632 22.0615 94.3013 22.7429L95.7123 23.8887L97.4118 21.8092L95.9928 20.6231Z" fill="white"/>
<path d="M85.4615 21.6061L79.4579 18.7647L82.942 11.4079L84.2373 12.0156L81.3081 18.2027L84.7227 19.8229L87.6518 13.6359L88.9456 14.2494L85.4615 21.6061Z" fill="white"/>
<path d="M80.8332 10.4995L80.41 11.6031C80.2737 11.5248 80.1281 11.4644 79.9764 11.4233C79.1779 11.2089 78.3015 11.5442 77.1149 16.2719L76.699 17.8212L71.2803 16.4617L73.2674 8.5636L74.6514 8.93514L72.9817 15.5808L75.7095 16.2623L75.8984 15.5586C77.1644 10.5353 78.329 9.76392 79.8852 10.1563C80.2127 10.2358 80.5306 10.3509 80.8332 10.4995Z" fill="white"/>
<path d="M69.5727 16.1365L63.5625 15.5628L63.6843 14.2833L68.2718 14.7223L68.4758 12.6153L64.4075 12.2269L64.5274 10.9532L68.596 11.3416L68.8055 9.16645L64.1556 8.72327L64.2774 7.44373L70.348 8.02731L69.5727 16.1365Z" fill="white"/>
<path d="M62.1951 15.5318L60.7893 15.6426L60.3327 9.71307L56.6835 15.9605L55.3491 16.065L54.7191 7.9462L56.1249 7.83542L56.5789 13.7515L60.2175 7.52037L61.5654 7.41308L62.1951 15.5318ZM60.7352 17.9229L59.8757 18.1486C59.8197 17.9272 59.6857 17.7333 59.4983 17.6027C59.3109 17.472 59.0825 17.4133 58.8553 17.4373C58.6269 17.4499 58.4106 17.5435 58.245 17.7012C58.0795 17.8589 57.9756 18.0705 57.952 18.2979L57.0833 18.2041C57.0839 17.7489 57.2599 17.3115 57.5749 16.9828C57.8899 16.6541 58.3196 16.4595 58.7745 16.4393C59.2288 16.3906 59.6846 16.517 60.0489 16.7927C60.4133 17.0684 60.6586 17.4726 60.7352 17.9229Z" fill="white"/>
<path d="M52.5151 8.26746L52.6836 9.43477C52.5262 9.43225 52.3694 9.45199 52.2176 9.49347C51.4192 9.70388 50.8179 10.3857 52.0705 15.1215L52.4848 16.6718L47.0838 18.1063L44.9846 10.2398L46.3534 9.86552L48.1262 16.4907L50.8574 15.7658L50.6612 15.0792C49.3269 10.0805 49.9723 8.83376 51.5231 8.41957C51.8478 8.33556 52.1802 8.28458 52.5151 8.26746Z" fill="white"/>
<path d="M45.4733 18.6946L44.2016 19.2978L41.6539 13.9291L40.4808 21.063L39.2734 21.6391L35.7826 14.2801L37.0543 13.6769L39.5975 19.0382L40.7675 11.9161L41.9867 11.3431L45.4733 18.6946Z" fill="white"/>
<path d="M35.7267 19.0007C36.0616 19.4439 36.3036 19.9504 36.4378 20.4894C36.572 21.0283 36.5955 21.5888 36.5076 22.1372C36.4196 22.6856 36.2218 23.2106 35.9258 23.6805C35.6297 24.1504 35.2415 24.5556 34.7848 24.8718C34.3158 25.2314 33.7776 25.4902 33.2038 25.6318C32.6299 25.7734 32.033 25.7948 31.4504 25.6947L31.5841 24.2979C32.0046 24.3792 32.437 24.3765 32.8564 24.29C33.2758 24.2035 33.674 24.0348 34.0279 23.7938C34.3235 23.5736 34.5716 23.2961 34.7575 22.9779C34.9434 22.6597 35.0633 22.3072 35.11 21.9417C35.1566 21.5761 35.129 21.2048 35.029 20.8501C34.9289 20.4953 34.7583 20.1644 34.5275 19.877C34.3288 19.5669 34.0699 19.2997 33.7661 19.0913C33.4624 18.8829 33.12 18.7375 32.7591 18.6637C32.3982 18.5899 32.0262 18.5892 31.6651 18.6615C31.3039 18.7339 30.9607 18.8778 30.6562 19.085C30.3039 19.3431 30.0084 19.671 29.7883 20.0481C29.5681 20.4252 29.4281 20.8436 29.3766 21.2773L28.0865 21.0515C28.1467 20.4313 28.3438 19.8322 28.6638 19.2976C28.9839 18.763 29.419 18.3062 29.9372 17.9601C30.3825 17.6394 30.8877 17.4115 31.4229 17.2901C31.9581 17.1686 32.5124 17.1562 33.0525 17.2533C33.5927 17.3504 34.1079 17.5551 34.5674 17.8553C35.0268 18.1555 35.4209 18.545 35.7267 19.0007Z" fill="white"/>
<path d="M28.8692 27.9369L30.6924 26.1062L31.6314 27.0492L26.9588 31.7223L26.0182 30.7851L27.8473 28.9559L23.0216 24.1358L24.0372 23.1405L28.8692 27.9369Z" fill="white"/>
<path d="M17.5144 35.4884C17.7516 35.6264 17.9247 35.8524 17.9961 36.1173C18.0675 36.3822 18.0312 36.6645 17.8955 36.903C17.757 37.1416 17.53 37.316 17.2636 37.3881C16.9973 37.4602 16.7133 37.4243 16.4733 37.2882C16.3553 37.2198 16.2517 37.1288 16.169 37.0203C16.0863 36.9119 16.0258 36.7882 15.9911 36.6563C15.9564 36.5245 15.9482 36.3871 15.9668 36.252C15.9853 36.117 16.0302 35.9868 16.0993 35.8692C16.167 35.7512 16.2574 35.6477 16.3652 35.5647C16.4731 35.4817 16.5963 35.4207 16.7277 35.3853C16.8591 35.35 16.9963 35.3409 17.1312 35.3586C17.2662 35.3762 17.3965 35.4204 17.5144 35.4884Z" fill="white"/>
<path d="M13.9444 46.6129C14.4867 46.7354 14.9986 46.9664 15.4494 47.2918C15.9002 47.6173 16.2806 48.0305 16.5675 48.5067C16.8543 48.9829 17.0417 49.5121 17.1187 50.0626C17.1956 50.6132 17.1605 51.1735 17.0152 51.71C16.8939 52.2892 16.6518 52.8363 16.3046 53.3155C15.9574 53.7947 15.513 54.1953 15.0004 54.491L14.1985 53.3439C14.9439 52.9181 15.4905 52.2148 15.7192 51.3875C15.8023 51.0278 15.812 50.6549 15.7475 50.2913C15.683 49.9277 15.5455 49.5808 15.3437 49.2715C15.1419 48.9622 14.88 48.6968 14.5732 48.4912C14.2663 48.2857 13.9209 48.1441 13.5581 48.0751C13.2058 47.9669 12.8354 47.9306 12.4689 47.9684C12.1023 48.0062 11.7472 48.1172 11.4244 48.2949C11.1017 48.4726 10.8179 48.7133 10.59 49.0028C10.3622 49.2923 10.1948 49.6246 10.0979 49.98C9.99396 50.4095 9.98097 50.8561 10.0597 51.2909C10.1384 51.7258 10.3072 52.1395 10.5552 52.5053L9.43081 53.1735C9.07306 52.663 8.83366 52.0793 8.72987 51.4648C8.62609 50.8502 8.66069 50.2204 8.83098 49.6209C8.9578 49.0812 9.19251 48.5728 9.52135 48.1265C9.85019 47.6801 10.2662 47.305 10.7441 47.0239C11.222 46.7428 11.752 46.5614 12.302 46.4908C12.852 46.4202 13.4108 46.4617 13.9444 46.6129Z" fill="white"/>
<path d="M7.9421 54.3717L9.10608 54.5954C9.04398 54.7384 9.00333 54.8899 8.98544 55.0448C8.92811 55.8726 9.39865 56.6708 14.263 57.0003L15.8701 57.1084L15.4824 62.7099L7.38298 62.1713L7.48207 60.7398L14.3318 61.2092L14.5211 58.4009L13.7865 58.3496C8.62398 57.9971 7.65203 56.9881 7.7583 55.3874C7.78364 55.0433 7.8452 54.7028 7.9421 54.3717Z" fill="white"/>
<path d="M7.71459 65.1191L8.8675 65.549C8.72848 65.8701 8.67975 66.2231 8.7266 66.5699C8.78272 66.8366 8.90632 67.0846 9.08533 67.2902C9.26434 67.4958 9.49273 67.6522 9.74925 67.7446L15.4945 63.6828L15.6987 65.2845L11.2784 68.3326L16.2338 70.0242L16.4049 71.5599L9.71947 69.1313C8.26965 68.6026 7.65309 67.8285 7.53599 66.7764C7.45042 66.2178 7.512 65.6466 7.71459 65.1191Z" fill="white"/>
<path d="M16.4054 72.4541L16.8637 73.7943L10.3689 76.0193L11.4088 79.0434L17.9036 76.8184L18.3645 78.172L11.8697 80.397L12.9096 83.4211L19.4031 81.2021L19.8615 82.5423L12.1768 85.1833L8.71498 75.0935L16.4054 72.4541Z" fill="white"/>
<path d="M22.299 86.36L22.9969 87.4919L17.8966 94.8458L17.0999 93.5606L18.3408 91.8207L16.3218 88.5464L14.2065 88.8661L13.4377 87.6201L22.299 86.36ZM19.1457 90.7118L21.1938 87.8066L17.6864 88.3295L19.1457 90.7118Z" fill="white"/>
<path d="M25.2241 92.9204L23.5543 90.9443L24.5701 90.0886L28.8335 95.1381L27.8234 95.9954L26.1532 94.0193L20.9387 98.4201L20.0112 97.3153L25.2241 92.9204Z" fill="white"/>
<path d="M29.6752 95.9475L30.7527 96.8707L28.8323 99.0874L30.2537 100.312C31.6326 101.506 31.974 102.999 30.8994 104.238C29.8247 105.478 28.2588 105.476 26.833 104.244L24.3518 102.1L29.6752 95.9475ZM27.6519 103.272C28.4556 103.963 29.2306 104.006 29.8369 103.307C30.4432 102.607 30.2067 101.929 29.3944 101.223L28.0198 100.036L26.2549 102.098L27.6519 103.272Z" fill="white"/>
<path d="M38.2203 102.577L44.1485 105.582L40.47 112.836L39.1916 112.188L42.2981 106.049L38.9505 104.345L35.844 110.485L34.5656 109.837L38.2203 102.577Z" fill="white"/>
<path d="M42.4525 113.717L42.9212 112.632C43.0545 112.717 43.199 112.784 43.3503 112.83C44.1429 113.042 45.024 112.785 46.4236 108.114L46.8808 106.576L52.2359 108.172L49.9 115.976L48.5312 115.571L50.4909 109.003L47.7904 108.196L47.6015 108.899C46.1166 113.864 44.9201 114.589 43.3878 114.108C43.0631 114.011 42.7495 113.88 42.4525 113.717Z" fill="white"/>
<path d="M53.9228 108.479L59.915 109.213L59.7641 110.484L55.1983 109.893L54.9378 111.997L58.9896 112.495L58.8383 113.767L54.7808 113.267L54.5162 115.434L59.1446 116.005L58.9934 117.276L52.9403 116.532L53.9228 108.479Z" fill="white"/>
<path d="M61.3077 109.269L62.7158 109.197L63.0237 115.138L66.8404 108.999L68.1772 108.933L68.5827 117.061L67.1745 117.133L66.8635 111.205L63.0557 117.333L61.7071 117.396L61.3077 109.269ZM62.8321 106.921L63.6989 106.716C63.7477 106.941 63.877 107.14 64.0623 107.276C64.2477 107.412 64.4763 107.476 64.7053 107.456C64.9337 107.449 65.1522 107.362 65.3214 107.208C65.4905 107.055 65.5992 106.846 65.6275 106.619L66.496 106.738C66.4812 107.192 66.294 107.622 65.9724 107.942C65.6508 108.262 65.219 108.448 64.7653 108.461C64.3117 108.493 63.8623 108.355 63.5041 108.075C63.1459 107.795 62.9041 107.392 62.8257 106.945L62.8321 106.921Z" fill="white"/>
<path d="M70.7782 116.82L70.6363 115.647C70.795 115.656 70.9542 115.643 71.1094 115.609C71.909 115.418 72.5391 114.725 71.4084 109.984L71.0414 108.421L76.461 107.131L78.344 115.047L76.955 115.378L75.3701 108.714L72.6266 109.366L72.7973 110.078C73.9824 115.112 73.3181 116.335 71.7591 116.709C71.4369 116.78 71.1081 116.817 70.7782 116.82Z" fill="white"/>
<path d="M78.1109 106.585L79.3983 106.017L81.8006 111.455L83.1677 104.354L84.3909 103.814L87.6796 111.264L86.3921 111.832L83.9928 106.407L82.6362 113.492L81.3996 114.035L78.1109 106.585Z" fill="white"/>
<path d="M87.8595 106.552C87.539 106.098 87.3135 105.585 87.1964 105.042C87.0793 104.499 87.0731 103.938 87.1781 103.392C87.2831 102.847 87.497 102.328 87.8072 101.867C88.1175 101.407 88.5178 101.013 88.9837 100.711C89.4641 100.364 90.011 100.12 90.5903 99.9954C91.1696 99.8705 91.7686 99.867 92.3494 99.9852L92.1782 101.378C91.7601 101.284 91.3274 101.275 90.9055 101.35C90.4836 101.425 90.0809 101.583 89.7209 101.815C89.4182 102.026 89.1616 102.297 88.9663 102.61C88.7711 102.923 88.6414 103.272 88.585 103.637C88.5286 104.002 88.5465 104.374 88.638 104.731C88.7296 105.089 88.8929 105.424 89.1176 105.717C89.3071 106.032 89.5578 106.306 89.8552 106.523C90.1526 106.74 90.4906 106.895 90.8489 106.979C91.2073 107.062 91.5786 107.073 91.9413 107.011C92.304 106.949 92.6506 106.814 92.9603 106.615C93.3221 106.365 93.6281 106.043 93.8595 105.668C94.0909 105.294 94.2426 104.876 94.3049 104.441L95.587 104.696C95.512 105.315 95.3004 105.909 94.967 106.436C94.6336 106.963 94.1869 107.409 93.6598 107.741C93.2045 108.055 92.6906 108.274 92.1487 108.384C91.6067 108.494 91.0481 108.494 90.5064 108.383C89.9646 108.271 89.4508 108.052 88.996 107.738C88.5411 107.423 88.1545 107.02 87.8595 106.552Z" fill="white"/>
<path d="M94.9629 97.8085L93.0857 99.5804L92.1707 98.6185L96.9735 94.0755L97.8866 95.0432L96.0095 96.8152L100.698 101.77L99.6467 102.755L94.9629 97.8085Z" fill="white"/>
<path d="M106.559 90.4929C106.328 90.3485 106.163 90.1193 106.099 89.8544C106.035 89.5895 106.077 89.31 106.217 89.0761C106.288 88.9582 106.382 88.8555 106.493 88.7741C106.603 88.6926 106.729 88.6339 106.863 88.6014C106.997 88.5689 107.136 88.5633 107.272 88.5848C107.408 88.6063 107.538 88.6545 107.655 88.7267C107.887 88.8712 108.053 89.1019 108.116 89.3682C108.179 89.6346 108.134 89.9149 107.99 90.1479C107.92 90.2651 107.826 90.367 107.716 90.4478C107.605 90.5287 107.48 90.5869 107.347 90.619C107.214 90.651 107.076 90.6564 106.941 90.6348C106.805 90.6131 106.676 90.5649 106.559 90.4929Z" fill="white"/>
</g>
<defs>
<clipPath id="clip0_387_51852">
<rect width="110" height="110" fill="white" transform="translate(23.5188 -5) rotate(15.0262)"/>
</clipPath>
</defs>
</svg>
