<svg width="135" height="24" fill="none" xmlns="http://www.w3.org/2000/svg"><g clip-path="url(#a)"><path d="M135 18.262H32.533v1.607H135v-1.607z" fill="url(#b)"/><path d="M11.44 24c6.32 0 11.441-5.373 11.441-12S17.76 0 11.441 0C5.122 0 0 5.373 0 12s5.122 12 11.44 12z" fill="#3A3A3C"/><path d="M77.003 3.344a1.3 1.3 0 0 1 .005 1.255c-.105.191-.256.35-.439.46a1.157 1.157 0 0 1-1.2 0 1.227 1.227 0 0 1-.44-.46 1.293 1.293 0 0 1 .005-1.255h2.07zm-41.135 7.273a4.551 4.551 0 0 1-2.017.593c-1.513 0-2.56-.835-2.56-2.677V5.611h1.686v2.405c0 .99.371 1.549 1.23 1.549a2.778 2.778 0 0 0 1.669-.514V5.615h1.677v7.975h-1.677l-.008-2.973zm3.507-5.01h5.762v1.561h-4.085v1.633h3.594v1.561h-3.594v1.67h4.137v1.558h-5.806l-.008-7.983zm7.3 0h3.115c1.821 0 2.92 1.131 2.92 2.78 0 1.846-1.37 2.802-3.084 2.802H48.36v2.393h-1.677l-.008-7.975zm3.015 4.029c.839 0 1.33-.526 1.33-1.253 0-.785-.523-1.206-1.362-1.206H48.36v2.459h1.33zm4.27-4.025h1.7v3.156h3.092V5.615h1.661v7.975h-1.68v-3.198H55.66v3.198h-1.702V5.61zm8.283 0h1.677v2.714h1.621c1.766 0 2.796 1.023 2.796 2.584 0 1.641-1.11 2.677-2.9 2.677h-3.194V5.61zm1.677 4.217v2.175h1.494c.826 0 1.253-.376 1.253-1.115 0-.672-.427-1.06-1.266-1.06H63.92zm5.264-4.217h1.677v7.975h-1.677V5.61zm10.076 7.975h-1.634V8.383l-3.354 5.207h-1.598V5.615h1.657v5.232l3.355-5.232h1.558l.016 7.97zm9.445 0v-2.113l-1.01-1.14-2.15 3.257H83.55l3.02-4.522-2.912-3.453h1.997l3.059 3.729v-3.73h1.67v3.73l3.058-3.73h1.997l-2.911 3.454 3.02 4.522h-1.998l-2.156-3.257-1.003 1.14v2.117l-1.685-.004zm7.844-7.975h5.754v1.561h-4.085v1.629h3.594v1.561h-3.594v1.67h4.141v1.558h-5.81V5.61zm7.3 0h1.809l1.997 3.373 1.997-3.373h1.809v7.975h-1.665V8.383l-2.149 3.403h-.044l-2.125-3.37v5.174h-1.645l.016-7.98zm13.882 5.01a4.55 4.55 0 0 1-1.997.593c-1.514 0-2.56-.835-2.56-2.676V5.615h1.678V8.02c0 .99.371 1.549 1.234 1.549a2.768 2.768 0 0 0 1.665-.514v-3.44h1.677v7.975h-1.677l-.02-2.969zm8.575-5.01h1.821l-2.932 6.167c-.666 1.386-1.429 1.933-2.496 1.933a3.09 3.09 0 0 1-1.645-.463l.655-1.29c.271.175.584.266.902.262.2-.009.393-.072.562-.184.168-.113.305-.27.397-.454l-3.051-5.971h1.876l2.069 4.217 1.842-4.217zm4.608 7.975h-1.677V5.615h5.327v1.587h-3.65v6.384z" fill="#fff"/><path d="M13.284.15a11.028 11.028 0 0 0-6.602.948A11.662 11.662 0 0 0 1.697 5.72a12.423 12.423 0 0 0-1.689 6.74 12.357 12.357 0 0 0 2.177 6.584 11.548 11.548 0 0 0 5.31 4.21c2.128.824 4.443.969 6.65.417a11.381 11.381 0 0 0 5.753-3.516 12.226 12.226 0 0 0 2.915-6.265c.237-1.556.179-3.146-.171-4.679a12.259 12.259 0 0 0-1.872-4.255 11.694 11.694 0 0 0-3.286-3.182 11.171 11.171 0 0 0-4.2-1.625zM1.473 10.328A10.84 10.84 0 0 1 3.16 5.953 10.281 10.281 0 0 1 6.5 2.78a6.875 6.875 0 0 0-1.65 3.9 6.881 6.881 0 0 0 .339 2.914c.32.932.838 1.777 1.514 2.472 1.969 2.008 5.036 3.278 7.84 1.841 2.715-1.386 3.003-5.603.307-7.599-1.685-1.253-4.477-1.232-5.124.605a2.412 2.412 0 0 0 .066 1.536c.19.49.532.896.973 1.153 1.769 1.09 3.522-.467 2.516-1.933.886.313 1.685 1.558 1.286 3.006-.6 2.18-3.331 2.957-5.644 1.433C5.9 10.12 6.02 5.97 7.764 3.949c2.768-3.215 7.189-2.589 9.937-.33 3.993 3.278 3.91 8.618 1.47 11.34a6.573 6.573 0 0 1-2.322 1.62c-.876.36-1.815.52-2.755.468-3.734-.142-6.082-3.39-8.419-4.651-1.281-.706-3.278-1.007-4.289.275a10.793 10.793 0 0 1 .088-2.342zm1.69 7.72c2.675.919 3.762-.522 3.242-1.578 1.218 1.073 1.334 4.15 3.435 5.979a9.848 9.848 0 0 1-3.767-1.491 10.325 10.325 0 0 1-2.91-2.91zm12.2 3.72a1.513 1.513 0 0 0 .108-1.198 1.294 1.294 0 0 0-.665-.714 1.211 1.211 0 0 0-.952-.025c-.424.121-.843.564-.707 1.031.136.468.758.627 1.282.314.056.534-.42 1.093-1.162 1.198-1.163.163-2.265-.706-3.247-2.088-.755-1.044-1.314-2.417-1.97-3.39-.57-.835-1.693-2.355-3.102-2.121a.943.943 0 0 0-.565.265 1.02 1.02 0 0 0-.294.57c.01.176.082.343.202.467a.67.67 0 0 0 .449.205c.115.026.234.02.347-.018a.673.673 0 0 0 .292-.195.768.768 0 0 1 .092.578.76.76 0 0 1-.336.47c-1.17.672-3.023-.447-3.298-2.088-.26-1.586 1.321-2.505 3.143-1.728 3.274 1.415 4.572 5.277 9.32 5.645a6.988 6.988 0 0 0 3.933-.85 7.406 7.406 0 0 0 2.897-2.908 10.717 10.717 0 0 1-2.188 3.956 10.142 10.142 0 0 1-3.579 2.624z" fill="url(#c)"/></g><defs><linearGradient id="b" x1="32.531" y1="19.061" x2="134.988" y2="19.061" gradientUnits="userSpaceOnUse"><stop stop-color="#F9DCBC"/><stop offset=".178" stop-color="#FEF9E9"/><stop offset=".443" stop-color="#FADEB9"/><stop offset=".528" stop-color="#F5D6AC"/><stop offset=".575" stop-color="#E6BA93"/><stop offset=".624" stop-color="#DCAF82"/><stop offset=".674" stop-color="#D2A47A"/><stop offset=".7" stop-color="#D9AD7A"/><stop offset=".818" stop-color="#EED6B5"/><stop offset=".957" stop-color="#FCEBD5"/></linearGradient><linearGradient id="c" x1="0" y1="0" x2="29.857" y2="7.367" gradientUnits="userSpaceOnUse"><stop stop-color="#FFBE77"/><stop offset=".188" stop-color="#FFECD2"/><stop offset=".443" stop-color="#FADEB9"/><stop offset=".656" stop-color="#D2A47A"/><stop offset=".957" stop-color="#FCEBD5"/></linearGradient><clipPath id="a"><path fill="#fff" d="M0 0h135v24H0z"/></clipPath></defs></svg>