<svg width="383" height="238" fill="none" xmlns="http://www.w3.org/2000/svg"><g clip-path="url(#a)"><path fill-rule="evenodd" clip-rule="evenodd" d="M1.201 0h377.95v88H378v6h1.151v1.821c0 73.206-86.141 139.227-188.975 139.227-102.167 0-188.975-66.021-188.975-139.227V94H5v-6H1.201V0z" fill="#7C65BE"/><path d="M298.028 126.736H82.324v3.105h215.704v-3.105z" fill="url(#b)"/><path d="M177.801 95.695a2.46 2.46 0 0 1 .01 2.49 2.51 2.51 0 0 1-3.424.913 2.48 2.48 0 0 1-1.249-2.16c.002-.436.12-.866.342-1.243h4.321zm-85.917 14.428a9.892 9.892 0 0 1-4.213 1.176c-3.161 0-5.347-1.656-5.347-5.309v-5.798h3.52v4.771c0 1.962.776 3.073 2.57 3.073a6.023 6.023 0 0 0 3.486-1.019V100.2h3.503v15.82H91.9l-.016-5.897zm7.324-9.939h12.036v3.097h-8.533v3.239h7.507v3.098h-7.507v3.313h8.642v3.089H99.224l-.016-15.836zm15.248 0h6.506c3.804 0 6.098 2.245 6.098 5.516 0 3.661-2.862 5.557-6.44 5.557h-2.644v4.746h-3.503l-.017-15.819zm6.298 7.992c1.751 0 2.777-1.043 2.777-2.485 0-1.556-1.093-2.393-2.844-2.393h-2.711v4.878h2.778zm8.917-7.984h3.554v6.262h6.455V100.2h3.471v15.82h-3.512v-6.345h-6.414v6.345h-3.554v-15.828zm17.3 0h3.504v5.384h3.386c3.687 0 5.839 2.029 5.839 5.126 0 3.256-2.319 5.31-6.056 5.31h-6.673v-15.82zm3.504 8.365v4.315h3.119c1.727 0 2.619-.745 2.619-2.211 0-1.334-.892-2.104-2.644-2.104h-3.094zm10.994-8.365h3.503v15.82h-3.503v-15.82zm21.045 15.82h-3.411v-10.321l-7.007 10.329h-3.337V100.2h3.462v10.378l7.007-10.378h3.253l.033 15.812zm19.728 0v-4.191l-2.11-2.261-4.488 6.46h-4.171l6.306-8.97-6.08-6.85h4.17l6.39 7.397V100.2h3.486v7.397l6.39-7.397h4.171l-6.081 6.85 6.306 8.97h-4.171l-4.504-6.46-2.094 2.261v4.199l-3.52-.008zm16.383-15.82h12.02v3.098h-8.534v3.23h7.508v3.098h-7.508v3.313h8.651v3.089h-12.137v-15.828zm15.248 0h3.779l4.171 6.692 4.171-6.692h3.778v15.82h-3.478v-10.321l-4.488 6.751h-.092l-4.437-6.684v10.262h-3.437l.033-15.828zm28.996 9.939a9.892 9.892 0 0 1-4.171 1.176c-3.162 0-5.348-1.656-5.348-5.309V100.2h3.504v4.771c0 1.963.776 3.073 2.578 3.073a5.994 5.994 0 0 0 3.478-1.019V100.2h3.504v15.82h-3.504l-.041-5.889zm17.909-9.939h3.803l-6.122 12.233c-1.393 2.75-2.987 3.835-5.213 3.835a6.707 6.707 0 0 1-3.437-.92l1.368-2.558a3.515 3.515 0 0 0 1.885.521 2.364 2.364 0 0 0 2.002-1.267l-6.373-11.844h3.92l4.321 8.365 3.846-8.365zm9.625 15.82H286.9V100.2h11.128v3.148h-7.625v12.664z" fill="#fff"/><path d="M214.618 58.635c0-13.391-10.856-24.247-24.248-24.247-13.391 0-24.247 10.856-24.247 24.247v.008c0 13.391 10.856 24.247 24.247 24.247 13.392 0 24.248-10.856 24.248-24.247v-.008z" fill="#3A3A3C"/><path d="M194.185 34.69a24.245 24.245 0 0 0-28.044 24.877 24.247 24.247 0 1 0 47.812-6.564 24.254 24.254 0 0 0-10.894-15.03 24.244 24.244 0 0 0-8.874-3.283zm-24.948 20.572a21.35 21.35 0 0 1 10.614-15.256 13.59 13.59 0 0 0-3.485 7.88 13.34 13.34 0 0 0 3.915 10.886c4.159 4.059 10.638 6.624 16.561 3.721 5.737-2.801 6.345-11.324.649-15.357-3.559-2.532-9.457-2.49-10.824 1.223a4.672 4.672 0 0 0 2.194 5.435c3.737 2.202 7.441-.945 5.315-3.907 1.873.633 3.56 3.147 2.716 6.075-1.265 4.405-7.036 5.974-11.92 2.894-6.388-4.016-6.134-12.404-2.447-16.488 5.847-6.497 15.186-5.231 20.99-.666 8.437 6.624 8.26 17.416 3.105 22.918a13.901 13.901 0 0 1-10.723 4.218c-7.888-.286-12.849-6.85-17.785-9.4-2.708-1.425-6.926-2.033-9.061.558a20.89 20.89 0 0 1 .186-4.734zm3.569 15.602c5.652 1.856 7.947-1.055 6.85-3.19 2.574 2.169 2.818 8.388 7.256 12.084a21.353 21.353 0 0 1-14.106-8.894zm25.774 7.518a2.96 2.96 0 0 0 .227-2.421 2.666 2.666 0 0 0-3.416-1.494c-.895.245-1.78 1.14-1.494 2.084.288.946 1.604 1.266 2.709.633.118 1.08-.886 2.211-2.455 2.422-2.455.33-4.784-1.426-6.86-4.22-1.594-2.109-2.775-4.885-4.159-6.85-1.206-1.689-3.577-4.76-6.555-4.287a2.034 2.034 0 0 0-1.814 1.687 1.441 1.441 0 0 0 1.375 1.359 1.424 1.424 0 0 0 1.35-.43 1.501 1.501 0 0 1-.063 1.716c-.122.162-.276.299-.452.401-2.472 1.359-6.386-.903-6.969-4.219-.548-3.206 2.793-5.063 6.641-3.493 6.918 2.86 9.659 10.666 19.69 11.408a15.32 15.32 0 0 0 14.428-7.594 21.424 21.424 0 0 1-4.623 7.995 21.39 21.39 0 0 1-7.56 5.303z" fill="url(#c)"/><path d="M120.631 171.747v-23.358h10.409c2.714 0 4.838.678 6.374 2.035 1.534 1.335 2.301 3.137 2.301 5.406 0 1.846-.5 3.37-1.501 4.571-1.001 1.18-2.358 2.014-4.07 2.503l6.306 8.843h-4.838l-5.805-8.142h-5.072v8.142h-4.104zm4.104-11.78h6.006c1.467 0 2.635-.355 3.503-1.067.867-.712 1.301-1.68 1.301-2.903 0-1.246-.422-2.203-1.268-2.87-.845-.668-2.035-1.001-3.57-1.001h-5.972v7.841zM145.712 171.747v-23.358h17.316v3.67h-13.212v6.073h11.711v3.671h-11.711v6.274h13.379v3.67h-17.483zM177.207 172.081c-3.714 0-6.962-1.246-9.742-3.737l2.469-2.937c2.335 2.024 4.793 3.037 7.374 3.037 1.267 0 2.268-.267 3.002-.802.756-.556 1.134-1.29 1.134-2.202 0-.867-.356-1.557-1.067-2.069-.712-.534-2.113-1.045-4.204-1.535-2.714-.645-4.694-1.457-5.939-2.436-1.223-1.001-1.835-2.525-1.835-4.571 0-2.003.745-3.627 2.236-4.873 1.489-1.267 3.403-1.902 5.738-1.902 3.203 0 6.028.979 8.475 2.937l-2.202 3.103c-2.158-1.602-4.271-2.402-6.339-2.402-1.18 0-2.114.267-2.803.8-.668.535-1.001 1.213-1.001 2.036 0 .912.367 1.624 1.101 2.136.756.489 2.235 1.001 4.437 1.535 2.581.623 4.471 1.457 5.672 2.503 1.224 1.045 1.835 2.513 1.835 4.404 0 2.158-.767 3.86-2.302 5.106-1.535 1.246-3.548 1.869-6.039 1.869zM211.263 168.61c-2.313 2.358-5.238 3.538-8.775 3.538-3.536 0-6.45-1.169-8.741-3.505-2.291-2.335-3.436-5.194-3.436-8.576 0-3.336 1.156-6.184 3.469-8.542 2.313-2.358 5.239-3.537 8.775-3.537 3.537 0 6.451 1.168 8.742 3.503 2.291 2.336 3.436 5.195 3.436 8.576 0 3.338-1.157 6.185-3.47 8.543zm-14.413-2.636c1.512 1.602 3.414 2.403 5.705 2.403s4.17-.801 5.639-2.403c1.49-1.602 2.235-3.571 2.235-5.907 0-2.313-.756-4.271-2.269-5.873-1.49-1.624-3.381-2.436-5.672-2.436s-4.181.801-5.672 2.403c-1.468 1.602-2.202 3.571-2.202 5.906 0 2.314.745 4.283 2.236 5.907zM220.661 171.747v-23.358h10.41c2.713 0 4.838.678 6.372 2.035 1.535 1.335 2.303 3.137 2.303 5.406 0 1.846-.501 3.37-1.502 4.571-1.001 1.18-2.358 2.014-4.071 2.503l6.306 8.843h-4.837l-5.806-8.142h-5.072v8.142h-4.103zm4.103-11.78h6.006c1.468 0 2.636-.355 3.503-1.067.868-.712 1.302-1.68 1.302-2.903 0-1.246-.423-2.203-1.268-2.87-.846-.668-2.036-1.001-3.57-1.001h-5.973v7.841zM251.48 171.747v-19.554h-7.407v-3.804h18.951v3.804h-7.407v19.554h-4.137z" fill="#fff"/><path d="M2.5 94c0 73.205 86.51 141.048 188.676 141.048C294.01 235.048 380.5 167.205 380.5 94" stroke="url(#d)" stroke-width="4"/></g><defs><linearGradient id="b" x1="82.32" y1="128.278" x2="298.002" y2="128.278" gradientUnits="userSpaceOnUse"><stop stop-color="#F9DCBC"/><stop offset=".178" stop-color="#FEF9E9"/><stop offset=".443" stop-color="#FADEB9"/><stop offset=".528" stop-color="#F5D6AC"/><stop offset=".575" stop-color="#E6BA93"/><stop offset=".624" stop-color="#DCAF82"/><stop offset=".674" stop-color="#D2A47A"/><stop offset=".7" stop-color="#D9AD7A"/><stop offset=".818" stop-color="#EED6B5"/><stop offset=".957" stop-color="#FCEBD5"/></linearGradient><linearGradient id="c" x1="166.123" y1="34.388" x2="228.862" y2="50.57" gradientUnits="userSpaceOnUse"><stop stop-color="#FFBE77"/><stop offset=".188" stop-color="#FFECD2"/><stop offset=".443" stop-color="#FADEB9"/><stop offset=".656" stop-color="#D2A47A"/><stop offset=".957" stop-color="#FCEBD5"/></linearGradient><linearGradient id="d" x1="671.313" y1="165.896" x2="-290.492" y2="165.896" gradientUnits="userSpaceOnUse"><stop stop-color="#F9DCBC"/><stop offset=".178" stop-color="#FEF9E9"/><stop offset=".305" stop-color="#FCEBD4"/><stop offset=".443" stop-color="#FADEB9"/><stop offset=".528" stop-color="#F5D6AC"/><stop offset=".575" stop-color="#E6BA93"/><stop offset=".624" stop-color="#DCAF82"/><stop offset=".693" stop-color="#F9DCBC"/><stop offset=".818" stop-color="#EED6B5"/><stop offset=".957" stop-color="#FCEBD5"/></linearGradient><clipPath id="a"><path fill="#fff" d="M0 0h383v238H0z"/></clipPath></defs></svg>