<svg width="360" height="585" fill="none" xmlns="http://www.w3.org/2000/svg"><g style="mix-blend-mode:screen" stroke="#fff" stroke-miterlimit="10"><path d="M-204.493 467.989c69.168 126.632 317.485 287.887 464.48 202.163 103.599-60.425 89.223-191.292 32.748-265.173C256.426 357.474 78.579 196.626 25.94 119.121 22.294 113.738-17.75 45.673-19.595.417" stroke-width="1.13"/><path d="M-204.493 467.989c69.167 126.631 317.485 287.887 464.479 202.162 103.599-60.425 89.36-190.052 29.833-259.785C245.852 358.829 63.666 218.484 4.442 135.719.839 130.686-41.031 64.433-35.996 13.633" stroke-width="1.04"/><path d="M-204.493 467.99c69.167 126.631 317.485 287.886 464.479 202.162 103.599-60.425 88.84-188.364 26.93-254.385C234.981 360.38 48.983 240.26-17.04 152.35c-3.526-4.698-47.255-69.135-35.353-125.469" stroke-width=".94"/><path d="M-204.493 467.989c69.167 126.632 317.485 287.887 464.479 202.163 103.592-60.42 87.919-186.341 23.986-249.02C223.78 362.139 32.089 263.669-38.57 168.951c-3.331-4.457-49.043-66.979-30.247-128.869" stroke-width=".85"/><path d="M-204.493 467.989c69.167 126.632 317.485 287.887 464.479 202.163 103.599-60.425 86.783-184.065 21.073-243.645-68.725-62.31-262.99-141.519-341.107-240.962-3.275-4.163-50.825-64.829-25.149-132.263" stroke-width=".76"/><path d="M-204.493 467.99c69.168 126.631 317.485 287.886 464.48 202.162 103.599-60.425 85.456-181.533 18.157-238.246C200.651 366.595 6.371 304.348-81.563 202.192c-3.236-3.763-52.607-62.68-20.05-135.658" stroke-width=".66"/><path d="M-204.492 467.989c69.167 126.632 317.485 287.887 464.479 202.163 103.599-60.425 84.039-178.804 15.191-232.852-86.446-67.994-282.401-112.146-378.244-218.574-3.124-3.468-54.395-60.467-14.965-139.041" stroke-width=".57"/></g></svg>