<svg width="180" height="115" fill="none" xmlns="http://www.w3.org/2000/svg"><path d="M180 77.063H0v2.59h180v-2.59z" fill="url(#a)"/><path d="M79.674 51.16a2.058 2.058 0 0 1 .008 2.078 2.097 2.097 0 0 1-3.623 0 2.067 2.067 0 0 1 .009-2.078h3.606zM7.977 63.2a8.233 8.233 0 0 1-3.515.98C1.824 64.18 0 62.798 0 59.75v-4.837h2.937v3.98c0 1.638.648 2.565 2.144 2.565a5.03 5.03 0 0 0 2.91-.85v-5.689h2.923V68.12H7.991l-.014-4.92zm6.112-8.295h10.044v2.585h-7.12v2.703h6.264v2.585h-6.265v2.764h7.212v2.578H14.103l-.014-13.215zm12.724 0h5.43c3.174 0 5.088 1.874 5.088 4.604 0 3.054-2.388 4.637-5.374 4.637H29.75v3.96h-2.923l-.014-13.2zm5.255 6.67c1.462 0 2.319-.87 2.319-2.074 0-1.298-.913-1.997-2.374-1.997H29.75v4.07h2.318zm7.442-6.662h2.965v5.225h5.387v-5.219h2.896V68.12h-2.93v-5.294h-5.353v5.294H39.51V54.913zm14.436 0h2.924v4.492h2.826c3.077 0 4.873 1.693 4.873 4.278 0 2.716-1.936 4.43-5.054 4.43h-5.569v-13.2zm2.924 6.98v3.6h2.603c1.441 0 2.186-.621 2.186-1.845 0-1.113-.745-1.755-2.207-1.755H56.87zm9.174-6.98h2.924v13.2h-2.924v-13.2zm17.562 13.2H80.76v-8.612l-5.848 8.619h-2.784v-13.2h2.889v8.66l5.847-8.66h2.715l.027 13.193zm16.463 0v-3.497l-1.761-1.887-3.745 5.391h-3.48l5.262-7.485-5.075-5.716h3.48l5.333 6.172V54.92h2.909v6.172l5.332-6.172h3.481l-5.075 5.716 5.263 7.485h-3.481l-3.758-5.39-1.748 1.886v3.504l-2.937-.007zm13.671-13.2h10.03v2.584h-7.121v2.696h6.265v2.585h-6.265v2.764h7.219v2.578H113.74V54.913zm12.724 0h3.154l3.48 5.584 3.481-5.584h3.152v13.2h-2.902v-8.612l-3.745 5.633h-.077l-3.702-5.577v8.563h-2.868l.027-13.207zm24.196 8.293a8.247 8.247 0 0 1-3.48.982c-2.639 0-4.462-1.383-4.462-4.43v-4.839h2.923V58.9c0 1.638.648 2.565 2.151 2.565a5.002 5.002 0 0 0 2.903-.85v-5.696h2.924V68.12h-2.924l-.035-4.914zm14.945-8.293h3.174L163.67 65.12c-1.162 2.294-2.492 3.2-4.35 3.2-1.009.006-2-.259-2.868-.768l1.141-2.135a2.94 2.94 0 0 0 1.573.435 1.977 1.977 0 0 0 1.671-1.058l-5.318-9.882h3.271l3.606 6.98 3.209-6.98zm8.033 13.2h-2.924V54.92H180v2.627h-6.362v10.567z" fill="#fff"/><path d="M110.395 20.234C110.395 9.059 101.336 0 90.162 0 78.987 0 69.928 9.059 69.928 20.234v.006c0 11.175 9.059 20.234 20.234 20.234 11.174 0 20.233-9.059 20.233-20.234v-.006z" fill="#3A3A3C"/><path d="M93.344.252A20.23 20.23 0 0 0 72.92 9.647a20.24 20.24 0 0 0 10.22 29.569 20.233 20.233 0 0 0 26.702-23.682 20.242 20.242 0 0 0-9.091-12.542 20.236 20.236 0 0 0-7.406-2.74zM72.526 17.419a17.82 17.82 0 0 1 8.857-12.73 11.343 11.343 0 0 0-2.908 6.576 11.13 11.13 0 0 0 3.267 9.083c3.47 3.387 8.878 5.528 13.82 3.106 4.787-2.338 5.294-9.45.542-12.816-2.97-2.112-7.892-2.077-9.033 1.021a3.9 3.9 0 0 0 1.83 4.535c3.12 1.838 6.21-.789 4.436-3.26 1.563.528 2.971 2.626 2.267 5.07-1.056 3.675-5.871 4.985-9.948 2.415-5.33-3.352-5.118-10.351-2.041-13.76 4.879-5.421 12.672-4.365 17.516-.556 7.04 5.528 6.892 14.534 2.591 19.125a11.61 11.61 0 0 1-8.948 3.52c-6.583-.239-10.723-5.717-14.841-7.843-2.26-1.19-5.78-1.697-7.562.464a17.454 17.454 0 0 1 .155-3.95zm2.978 13.02c4.717 1.549 6.632-.88 5.717-2.662 2.147 1.81 2.351 6.999 6.055 10.083a17.818 17.818 0 0 1-11.772-7.421zm21.508 6.273a2.464 2.464 0 0 0 .19-2.02 2.225 2.225 0 0 0-2.851-1.247c-.746.205-1.485.951-1.246 1.74.24.788 1.338 1.056 2.26.528.099.901-.74 1.845-2.049 2.02-2.048.276-3.992-1.19-5.724-3.52-1.33-1.76-2.316-4.077-3.47-5.718-1.007-1.408-2.986-3.971-5.471-3.577a1.697 1.697 0 0 0-1.513 1.409 1.204 1.204 0 0 0 1.147 1.133 1.191 1.191 0 0 0 1.127-.359 1.261 1.261 0 0 1-.43 1.767c-2.063 1.134-5.33-.753-5.815-3.52-.458-2.676 2.33-4.225 5.54-2.915 5.774 2.387 8.062 8.9 16.432 9.52a12.785 12.785 0 0 0 12.04-6.338 17.874 17.874 0 0 1-10.167 11.097z" fill="url(#b)"/><path d="M31.966 114.624V95.131h8.686c2.265 0 4.038.566 5.319 1.699 1.28 1.114 1.92 2.618 1.92 4.511 0 1.541-.417 2.812-1.252 3.815-.836.984-1.968 1.68-3.397 2.088l5.262 7.38h-4.037l-4.844-6.795H35.39v6.795h-3.425zm3.425-9.83h5.011c1.225 0 2.2-.297 2.923-.891.724-.595 1.086-1.402 1.086-2.423 0-1.04-.352-1.838-1.058-2.395-.705-.557-1.698-.835-2.979-.835h-4.983v6.544zM52.895 114.624V95.131h14.45v3.063H56.32v5.068h9.773v3.063H56.32v5.235h11.165v3.064h-14.59zM79.177 114.902c-3.1 0-5.81-1.04-8.13-3.119l2.06-2.451c1.95 1.69 4 2.535 6.153 2.535 1.058 0 1.893-.223 2.506-.669.631-.464.946-1.076.946-1.838 0-.723-.297-1.299-.89-1.726-.595-.446-1.764-.873-3.508-1.281-2.265-.538-3.917-1.216-4.956-2.033-1.021-.835-1.532-2.107-1.532-3.815 0-1.67.622-3.026 1.866-4.066 1.243-1.057 2.84-1.587 4.789-1.587 2.672 0 5.03.817 7.072 2.451l-1.838 2.59c-1.8-1.337-3.564-2.005-5.29-2.005-.984 0-1.763.222-2.339.668-.557.445-.835 1.012-.835 1.699 0 .761.306 1.355.918 1.782.632.408 1.866.835 3.704 1.281 2.153.52 3.73 1.216 4.733 2.088 1.02.873 1.531 2.098 1.531 3.676 0 1.801-.64 3.221-1.921 4.26-1.28 1.04-2.96 1.56-5.04 1.56zM107.597 112.006c-1.931 1.968-4.371 2.952-7.323 2.952-2.95 0-5.382-.975-7.294-2.925-1.912-1.949-2.868-4.334-2.868-7.156 0-2.785.965-5.16 2.896-7.129 1.93-1.967 4.371-2.951 7.322-2.951 2.951 0 5.383.974 7.295 2.923 1.912 1.95 2.867 4.335 2.867 7.157 0 2.785-.965 5.161-2.895 7.129zm-12.028-2.2c1.262 1.336 2.85 2.005 4.761 2.005 1.912 0 3.48-.669 4.705-2.005 1.244-1.337 1.865-2.98 1.865-4.929 0-1.931-.63-3.564-1.892-4.9-1.244-1.356-2.822-2.034-4.734-2.034-1.911 0-3.489.668-4.733 2.005-1.225 1.337-1.837 2.98-1.837 4.929 0 1.931.622 3.573 1.865 4.929zM115.438 114.624V95.131h8.687c2.264 0 4.037.566 5.318 1.699 1.28 1.114 1.921 2.618 1.921 4.511 0 1.541-.418 2.812-1.253 3.815-.835.984-1.968 1.68-3.397 2.088l5.262 7.38h-4.037l-4.844-6.795h-4.232v6.795h-3.425zm3.425-9.83h5.011c1.225 0 2.2-.297 2.924-.891.723-.595 1.086-1.402 1.086-2.423 0-1.04-.353-1.838-1.059-2.395-.705-.557-1.698-.835-2.979-.835h-4.983v6.544zM141.156 114.624V98.306h-6.18V95.13h15.814v3.175h-6.181v16.318h-3.453z" fill="#fff"/><defs><linearGradient id="a" x1="-.004" y1="78.35" x2="179.978" y2="78.35" gradientUnits="userSpaceOnUse"><stop stop-color="#F9DCBC"/><stop offset=".178" stop-color="#FEF9E9"/><stop offset=".443" stop-color="#FADEB9"/><stop offset=".528" stop-color="#F5D6AC"/><stop offset=".575" stop-color="#E6BA93"/><stop offset=".624" stop-color="#DCAF82"/><stop offset=".674" stop-color="#D2A47A"/><stop offset=".7" stop-color="#D9AD7A"/><stop offset=".818" stop-color="#EED6B5"/><stop offset=".957" stop-color="#FCEBD5"/></linearGradient><linearGradient id="b" x1="69.927" y1="0" x2="122.282" y2="13.504" gradientUnits="userSpaceOnUse"><stop stop-color="#FFBE77"/><stop offset=".188" stop-color="#FFECD2"/><stop offset=".443" stop-color="#FADEB9"/><stop offset=".656" stop-color="#D2A47A"/><stop offset=".957" stop-color="#FCEBD5"/></linearGradient></defs></svg>